<?xml version="1.0" encoding="utf-8"?>
<svg viewBox="303.252 150.236 206.859 159.275" xmlns="http://www.w3.org/2000/svg">
  <g id="g10" transform="matrix(1.333333, 0, 0, -1.333333, 0, 1122.52002)">
    <g id="g12" transform="scale(0.1)">
      <path d="m 3701.88,6890.7 c 4.23,-11.02 8.16,-22.17 11.79,-33.43 2.84,-8.69 5.44,-17.48 7.88,-26.2 -30.49,3.83 -62.04,5.63 -94.21,5.63 -186.82,0.01 -395.39,-60.75 -549.07,-137.74 -9.74,-4.88 -19.21,-9.81 -28.43,-14.82 v 0 c 59.93,18.58 270.13,50.18 468.58,50.18 107.51,0 211.58,-9.28 286.42,-34.92 -0.63,9.78 -1.43,19.67 -2.49,29.51 -5.61,53.6 -17.19,106.32 -34.95,157.15 -21.27,2.83 -43.16,4.33 -65.52,4.64" style="fill:#ef64b9;fill-opacity:1;fill-rule:nonzero;stroke:none" id="path14"/>
      <path d="m 3664.09,6971.88 c -276.35,-45.61 -606.43,-281.73 -614.25,-287.74 v 0 0 c 148.77,89.49 418.22,206.62 643.18,206.62 2.97,0 5.91,-0.02 8.86,-0.06 -10.7,27.9 -23.3,55.03 -37.79,81.18" style="fill:#5d98d7;fill-opacity:1;fill-rule:nonzero;stroke:none" id="path16"/>
      <path d="m 3693.02,6890.76 c -224.96,0 -494.41,-117.13 -643.18,-206.62 9.22,5.01 18.69,9.94 28.43,14.82 153.68,76.99 362.25,137.75 549.07,137.74 32.17,0 63.72,-1.8 94.21,-5.63 -2.44,8.72 -5.04,17.51 -7.88,26.2 -3.63,11.26 -7.56,22.41 -11.79,33.43 -2.95,0.04 -5.89,0.06 -8.86,0.06" style="fill:#472a89;fill-opacity:1;fill-rule:nonzero;stroke:none" id="path18"/>
      <path d="m 3052,6686.85 c -1.18,-1.43 -1.91,-2.35 -2.16,-2.71 0.72,0.9 1.43,1.8 2.16,2.71 m 531.77,479.83 c -133.6,-70.07 -297.07,-226.75 -407.68,-342.69 123.74,122.88 291.42,255.32 446.22,301.33 -12.26,14.3 -25.11,28.1 -38.54,41.36" style="fill:#fbc42c;fill-opacity:1;fill-rule:nonzero;stroke:none" id="path20"/>
      <path d="m 3508.82,7292.13 c -215.15,-130.56 -390.37,-420.69 -458.98,-607.99 v 0 c 93.22,164.75 272.4,430.76 492.85,519.9 14.24,-11.91 27.94,-24.37 41.08,-37.36 17.08,8.95 33.66,16.49 49.59,22.35 -7.1,7.3 -14.39,14.58 -21.88,21.65 -40.63,38.62 -53.93,52.99 -102.66,81.45" style="fill:#f78f30;fill-opacity:1;fill-rule:nonzero;stroke:none" id="path22"/>
      <path d="m 3542.69,7204.04 c -220.45,-89.14 -399.63,-355.15 -492.85,-519.9 v 0 c 0.25,0.36 0.98,1.28 2.16,2.71 31.83,40.04 74.42,87.82 124.09,137.14 110.61,115.94 274.08,272.62 407.68,342.69 -13.14,12.99 -26.84,25.45 -41.08,37.36" style="fill:#f1511d;fill-opacity:1;fill-rule:nonzero;stroke:none" id="path24"/>
      <path d="m 3051.88,6686 c -1.1,-0.96 -1.78,-1.59 -2.04,-1.86 v 0 c 0.68,0.62 1.36,1.24 2.04,1.86 m 596.01,446.15 c -8.48,-2 -17,-4.28 -25.58,-6.83 10.16,-11.84 19.91,-24.01 29.25,-36.51 5.84,-7.77 11.47,-15.71 16.92,-23.63 -134.88,-26.06 -333.25,-159.72 -468.78,-261.48 131.79,92.07 298.75,178.1 452.28,189.07 4.17,-6.89 8.21,-13.86 12.11,-20.89 28.3,4.67 56.02,7.34 82.79,7.56 -3.98,8.46 -8.16,16.96 -12.55,25.32 -23.79,45.6 -52.65,88.39 -86.44,127.39" style="fill:#55c6b8;fill-opacity:1;fill-rule:nonzero;stroke:none" id="path26"/>
      <path d="m 3651.98,6992.77 c -153.53,-10.97 -320.49,-97 -452.28,-189.07 -78.7,-59.08 -136.22,-107.42 -147.82,-117.7 -0.68,-0.62 -1.36,-1.24 -2.04,-1.86 7.82,6.01 337.9,242.13 614.25,287.74 -3.9,7.03 -7.94,14 -12.11,20.89" style="fill:#274493;fill-opacity:1;fill-rule:nonzero;stroke:none" id="path28"/>
      <path d="m 3622.31,7125.32 c -154.8,-46.01 -322.48,-178.45 -446.22,-301.33 -66.22,-69.41 -113.49,-124.22 -124.09,-137.14 -0.73,-0.91 -1.44,-1.81 -2.16,-2.71 v 0 0 c 0.26,0.27 0.94,0.9 2.04,1.86 39.99,36.61 90.59,77.73 147.82,117.7 135.53,101.76 333.9,235.42 468.78,261.48 -5.45,7.92 -11.08,15.86 -16.92,23.63 -9.34,12.5 -19.09,24.67 -29.25,36.51" style="fill:#3c7730;fill-opacity:1;fill-rule:nonzero;stroke:none" id="path30"/>
      <path d="m 3199.7,6803.7 c -57.23,-39.97 -107.83,-81.09 -147.82,-117.7 11.6,10.28 69.12,58.62 147.82,117.7" style="fill:#131310;fill-opacity:1;fill-rule:nonzero;stroke:none" id="path32"/>
      <path d="m 3049.84,6684.14 z m 126.25,139.85 c -49.67,-49.32 -92.26,-97.1 -124.09,-137.14 10.6,12.92 57.87,67.73 124.09,137.14" style="fill:#411915;fill-opacity:1;fill-rule:nonzero;stroke:none" id="path34"/>
      <path d="m 2397.81,6890.7 c -22.37,-0.31 -44.26,-1.81 -65.52,-4.64 -17.77,-50.83 -29.35,-103.55 -34.96,-157.15 -1.06,-9.84 -1.85,-19.73 -2.49,-29.51 74.85,25.64 178.91,34.92 286.42,34.92 198.46,0 408.66,-31.6 468.58,-50.18 v 0 c -9.22,5.01 -18.69,9.94 -28.42,14.82 -153.68,76.99 -362.25,137.74 -549.07,137.74 -32.18,0 -63.73,-1.8 -94.22,-5.63 2.44,8.72 5.05,17.51 7.89,26.2 3.63,11.26 7.56,22.41 11.79,33.43" style="fill:#69cdda;fill-opacity:1;fill-rule:nonzero;stroke:none" id="path36"/>
      <path d="m 2435.59,6971.88 c -14.49,-26.15 -27.09,-53.28 -37.78,-81.18 2.95,0.04 5.89,0.06 8.85,0.06 224.96,0 494.42,-117.13 643.18,-206.62 v 0 0 c -7.81,6.01 -337.89,242.13 -614.25,287.74" style="fill:#f78f30;fill-opacity:1;fill-rule:nonzero;stroke:none" id="path38"/>
      <path d="m 2406.66,6890.76 c -2.96,0 -5.9,-0.02 -8.85,-0.06 -4.23,-11.02 -8.16,-22.17 -11.79,-33.43 -2.84,-8.69 -5.45,-17.48 -7.89,-26.2 30.49,3.83 62.04,5.63 94.22,5.63 186.82,0 395.39,-60.75 549.07,-137.74 9.73,-4.88 19.2,-9.81 28.42,-14.82 -148.76,89.49 -418.22,206.62 -643.18,206.62" style="fill:#1d7137;fill-opacity:1;fill-rule:nonzero;stroke:none" id="path40"/>
      <path d="m 3047.7,6686.84 c 0.72,-0.91 1.43,-1.8 2.14,-2.7 -0.24,0.36 -0.97,1.27 -2.14,2.7 m -531.79,479.84 c -13.42,-13.26 -26.28,-27.06 -38.54,-41.36 154.8,-46.01 322.48,-178.45 446.22,-301.33 -110.6,115.94 -274.08,272.62 -407.68,342.69" style="fill:#ef64b9;fill-opacity:1;fill-rule:nonzero;stroke:none" id="path42"/>
      <path d="m 2590.87,7292.13 c -48.73,-28.46 -62.03,-42.83 -102.66,-81.45 -7.49,-7.07 -14.79,-14.35 -21.88,-21.65 15.93,-5.86 32.5,-13.39 49.58,-22.35 13.15,12.99 26.85,25.45 41.08,37.36 220.46,-89.14 399.63,-355.15 492.85,-519.9 v 0 c -68.6,187.3 -243.82,477.43 -458.97,607.99" style="fill:#fbc42c;fill-opacity:1;fill-rule:nonzero;stroke:none" id="path44"/>
      <path d="m 2556.99,7204.04 c -14.23,-11.91 -27.93,-24.37 -41.08,-37.36 133.6,-70.07 297.08,-226.75 407.68,-342.69 49.67,-49.32 92.27,-97.11 124.11,-137.15 1.17,-1.43 1.9,-2.34 2.14,-2.7 v 0 c -93.22,164.75 -272.39,430.76 -492.85,519.9" style="fill:#ee2d21;fill-opacity:1;fill-rule:nonzero;stroke:none" id="path46"/>
      <path d="m 3047.81,6686 c 0.68,-0.62 1.36,-1.24 2.03,-1.86 v 0 c -0.26,0.27 -0.94,0.9 -2.03,1.86 m -596.02,446.15 c -33.78,-39 -62.64,-81.79 -86.43,-127.39 -4.4,-8.36 -8.57,-16.86 -12.56,-25.32 26.77,-0.22 54.49,-2.89 82.79,-7.56 3.9,7.03 7.94,14 12.12,20.89 153.53,-10.97 320.47,-96.99 452.26,-189.05 -135.53,101.75 -333.89,235.4 -468.76,261.46 5.44,7.92 11.08,15.86 16.92,23.63 9.34,12.5 19.09,24.67 29.24,36.51 -8.58,2.55 -17.1,4.83 -25.58,6.83" style="fill:#5d98d7;fill-opacity:1;fill-rule:nonzero;stroke:none" id="path48"/>
      <path d="m 2447.71,6992.77 c -4.18,-6.89 -8.22,-13.86 -12.12,-20.89 276.36,-45.61 606.44,-281.73 614.25,-287.74 -0.67,0.62 -1.35,1.24 -2.03,1.86 -11.59,10.27 -69.11,58.61 -147.84,117.72 -131.79,92.06 -298.73,178.08 -452.26,189.05" style="fill:#4a3115;fill-opacity:1;fill-rule:nonzero;stroke:none" id="path50"/>
      <path d="m 2477.37,7125.32 c -10.15,-11.84 -19.9,-24.01 -29.24,-36.51 -5.84,-7.77 -11.48,-15.71 -16.92,-23.63 134.87,-26.06 333.23,-159.71 468.76,-261.46 57.23,-39.98 107.85,-81.11 147.84,-117.72 1.09,-0.96 1.77,-1.59 2.03,-1.86 v 0 0 c -0.71,0.9 -1.42,1.79 -2.14,2.7 -10.59,12.89 -57.86,67.71 -124.11,137.15 -123.74,122.88 -291.42,255.32 -446.22,301.33" style="fill:#472a89;fill-opacity:1;fill-rule:nonzero;stroke:none" id="path52"/>
      <path d="m 2899.97,6803.72 c 78.73,-59.11 136.25,-107.45 147.84,-117.72 -39.99,36.61 -90.61,77.74 -147.84,117.72" style="fill:#431516;fill-opacity:1;fill-rule:nonzero;stroke:none" id="path54"/>
      <path d="m 3049.84,6684.14 z m -126.25,139.85 c 66.25,-69.44 113.52,-124.26 124.11,-137.15 -31.84,40.04 -74.44,87.83 -124.11,137.15" style="fill:#3d1415;fill-opacity:1;fill-rule:nonzero;stroke:none" id="path56"/>
      <path d="m 3049.84,6594.07 c -42.56,0 -80.97,16.81 -103.14,44.49 h -660.18 v 38.84 h 680.99 l 5.7,-9.18 c 13.31,-21.45 43.39,-35.31 76.63,-35.31 33.24,0 63.32,13.86 76.64,35.31 l 5.69,9.18 h 680.99 v -38.84 h -660.18 c -22.16,-27.68 -60.58,-44.49 -103.14,-44.49" style="fill:#656263;fill-opacity:1;fill-rule:nonzero;stroke:none" id="path58"/>
      <path d="m 3596.6,6192.73 c -3.56,0 -5.34,-0.48 -5.34,-1.43 v -90.6 c 0,-0.7 0.32,-1.18 0.98,-1.44 0.65,-0.26 1.84,-0.39 3.58,-0.39 h 45.11 c 0.78,0 1.17,1.48 1.17,4.43 v 1.7 c 0,2.87 -0.39,4.3 -1.17,4.3 h -37.29 v 82 c 0,0.95 -1.87,1.43 -5.6,1.43 z m 59.32,0 c -0.44,0 -0.72,-0.22 -0.85,-0.65 -0.13,-0.44 -0.2,-1.48 -0.2,-3.13 v -1.43 c 0,-1.66 0.07,-2.7 0.2,-3.13 0.13,-0.44 0.41,-0.65 0.85,-0.65 h 9.51 v -75.87 h -9.51 c -0.44,0 -0.72,-0.22 -0.85,-0.66 -0.13,-0.43 -0.2,-1.47 -0.2,-3.12 v -1.44 c 0,-1.65 0.07,-2.69 0.2,-3.13 0.13,-0.43 0.41,-0.65 0.85,-0.65 h 31.41 c 0.7,0 1.05,1.22 1.05,3.65 v 1.57 c 0,2.52 -0.35,3.78 -1.05,3.78 h -9.51 v 75.87 h 9.51 c 0.7,0 1.05,1.25 1.05,3.78 v 1.56 c 0,2.43 -0.35,3.65 -1.05,3.65 z m 50.97,0 v -92.42 c 0,-0.96 1.86,-1.44 5.6,-1.44 h 1.44 c 3.56,0 5.34,0.48 5.34,1.44 v 40.93 h 30.5 c 0.79,0 1.18,1.48 1.18,4.43 v 1.57 c 0,2.86 -0.39,4.3 -1.18,4.3 h -30.5 v 30.89 h 36.5 c 0.78,0 1.17,1.48 1.17,4.43 v 1.57 c 0,2.87 -0.39,4.3 -1.17,4.3 z m 63.87,0 v -93.86 h 52.67 c 0.78,0 1.17,1.48 1.17,4.43 v 1.7 c 0,2.87 -0.39,4.3 -1.17,4.3 h -40.28 v 31.94 h 33.76 c 0.78,0 1.17,1.48 1.17,4.43 v 1.57 c 0,2.86 -0.39,4.3 -1.17,4.3 h -33.76 v 30.89 h 39.75 c 0.79,0 1.18,1.48 1.18,4.43 v 1.57 c 0,2.87 -0.39,4.3 -1.18,4.3 h -52.14" style="fill:#33b540;fill-opacity:1;fill-rule:nonzero;stroke:none" id="path60"/>
      <path d="m 3520.08,6159.16 c -1.91,-0.82 -3.58,-1.97 -5.01,-3.45 -1.44,-1.48 -2.57,-3.2 -3.39,-5.15 -0.83,-1.96 -1.24,-4.06 -1.24,-6.32 0,-2.18 0.41,-4.22 1.24,-6.13 0.82,-1.91 1.95,-3.58 3.39,-5.02 1.43,-1.43 3.1,-2.56 5.01,-3.39 1.91,-0.83 3.96,-1.24 6.13,-1.24 2.26,0 4.37,0.41 6.32,1.24 1.96,0.83 3.67,1.96 5.15,3.39 1.48,1.44 2.63,3.11 3.46,5.02 0.82,1.91 1.24,3.95 1.24,6.13 0,2.26 -0.42,4.36 -1.24,6.32 -0.83,1.95 -1.98,3.67 -3.46,5.15 -1.48,1.48 -3.19,2.63 -5.15,3.45 -1.95,0.83 -4.06,1.24 -6.32,1.24 -2.17,0 -4.22,-0.41 -6.13,-1.24" style="fill:#656263;fill-opacity:1;fill-rule:nonzero;stroke:none" id="path62"/>
      <path d="m 2999.44,6192.73 c -3.57,0 -5.35,-0.48 -5.35,-1.43 v -90.6 c 0,-0.7 0.33,-1.18 0.98,-1.44 0.65,-0.26 1.84,-0.39 3.58,-0.39 h 45.11 c 0.78,0 1.17,1.48 1.17,4.43 v 1.7 c 0,2.87 -0.39,4.3 -1.17,4.3 h -37.29 v 82 c 0,0.95 -1.86,1.43 -5.6,1.43 z m 60.61,0 v -93.86 h 52.67 c 0.78,0 1.17,1.48 1.17,4.43 v 1.7 c 0,2.87 -0.39,4.3 -1.17,4.3 h -40.28 v 31.94 h 33.76 c 0.78,0 1.17,1.48 1.17,4.43 v 1.57 c 0,2.86 -0.39,4.3 -1.17,4.3 h -33.76 v 30.89 h 39.76 c 0.78,0 1.17,1.48 1.17,4.43 v 1.57 c 0,2.87 -0.39,4.3 -1.17,4.3 z m 69.61,0 c -0.43,0 -0.71,-0.22 -0.84,-0.65 -0.14,-0.44 -0.2,-1.48 -0.2,-3.13 v -1.43 c 0,-1.66 0.06,-2.7 0.2,-3.13 0.13,-0.44 0.41,-0.65 0.84,-0.65 h 9.52 v -75.87 h -9.52 c -0.43,0 -0.71,-0.22 -0.84,-0.66 -0.14,-0.43 -0.2,-1.47 -0.2,-3.12 v -1.44 c 0,-1.65 0.06,-2.69 0.2,-3.13 0.13,-0.43 0.41,-0.65 0.84,-0.65 h 31.42 c 0.69,0 1.04,1.22 1.04,3.65 v 1.57 c 0,2.52 -0.35,3.78 -1.04,3.78 h -9.52 v 75.87 h 9.52 c 0.69,0 1.04,1.25 1.04,3.78 v 1.56 c 0,2.43 -0.35,3.65 -1.04,3.65 z m 98.03,-9.91 c 0.52,0.96 0.89,1.87 1.11,2.74 0.22,0.87 0.11,1.48 -0.33,1.83 -1.3,1.04 -2.84,1.97 -4.62,2.8 -1.79,0.82 -3.68,1.52 -5.67,2.08 -2,0.57 -4.02,1 -6.07,1.31 -2.04,0.3 -4.02,0.45 -5.93,0.45 -3.65,0 -7.12,-0.58 -10.43,-1.76 -3.3,-1.17 -6.19,-2.86 -8.66,-5.08 -2.48,-2.22 -4.44,-4.93 -5.87,-8.15 -1.43,-3.21 -2.15,-6.86 -2.15,-10.95 0,-4.6 1.02,-8.41 3.06,-11.4 2.04,-3 4.61,-5.57 7.69,-7.69 3.09,-2.14 6.43,-3.98 10.04,-5.55 3.61,-1.56 6.95,-3.25 10.04,-5.08 3.08,-1.82 5.65,-3.93 7.69,-6.32 2.04,-2.39 3.06,-5.46 3.06,-9.19 0,-2.44 -0.5,-4.56 -1.5,-6.39 -1,-1.82 -2.37,-3.37 -4.1,-4.63 -1.74,-1.26 -3.76,-2.21 -6.06,-2.87 -2.31,-0.65 -4.81,-0.97 -7.5,-0.97 -2.78,0 -6,0.56 -9.65,1.69 -3.65,1.13 -6.95,2.69 -9.9,4.69 -0.44,0.27 -0.98,0.18 -1.63,-0.26 -0.66,-0.43 -1.33,-1.17 -2.02,-2.21 l -0.92,-1.57 c -1.56,-2.69 -1.82,-4.47 -0.78,-5.34 2.87,-2.26 6.6,-4.06 11.21,-5.41 4.61,-1.35 9.65,-2.02 15.12,-2.02 4.96,0 9.3,0.65 13.04,1.95 3.74,1.31 6.86,3.13 9.39,5.48 2.52,2.35 4.41,5.17 5.67,8.47 1.26,3.3 1.89,6.95 1.89,10.95 0,4.87 -1.03,8.93 -3.07,12.19 -2.04,3.26 -4.62,6.04 -7.75,8.34 -3.13,2.31 -6.48,4.31 -10.04,6 -3.57,1.7 -6.91,3.41 -10.04,5.15 -3.13,1.74 -5.71,3.67 -7.75,5.8 -2.05,2.13 -3.07,4.76 -3.07,7.89 0,1.73 0.31,3.43 0.91,5.08 0.61,1.65 1.57,3.13 2.87,4.43 1.31,1.31 2.96,2.35 4.96,3.13 1.99,0.78 4.38,1.18 7.17,1.18 3.3,0 6.32,-0.42 9.06,-1.24 2.73,-0.83 5.14,-1.94 7.23,-3.33 0.43,-0.26 0.98,-0.21 1.63,0.13 0.65,0.35 1.32,1.18 2.02,2.48 z m 25.03,9.91 c -3.56,0 -5.34,-0.48 -5.34,-1.43 v -58.27 c 0,-12.43 2.86,-21.45 8.6,-27.05 5.74,-5.61 14.25,-8.41 25.55,-8.41 11.82,0 20.64,3.06 26.46,9.19 5.82,6.13 8.74,15.66 8.74,28.61 v 55.93 c 0,0.95 -1.87,1.43 -5.61,1.43 h -1.43 c -3.57,0 -5.35,-0.48 -5.35,-1.43 v -57.49 c 0,-8.61 -1.93,-15.06 -5.8,-19.36 -3.87,-4.3 -9.36,-6.45 -16.49,-6.45 -7.3,0 -12.84,2.02 -16.62,6.06 -3.78,4.04 -5.67,10.67 -5.67,19.88 v 57.36 c 0,0.95 -1.87,1.43 -5.61,1.43 z m 83.95,0 v -92.42 c 0,-0.96 1.87,-1.44 5.61,-1.44 h 1.43 c 3.56,0 5.35,0.48 5.35,1.44 v 37.02 h 13.42 l 7.95,-15.51 c 2,-3.92 3.83,-7.41 5.48,-10.5 1.65,-3.08 3.73,-6.41 6.26,-9.97 0.43,-0.61 1.19,-1.17 2.28,-1.7 1.08,-0.52 2.63,-0.78 4.63,-0.78 h 2.47 c 1.91,0 3.35,0.22 4.3,0.65 0.96,0.44 1.26,0.92 0.92,1.44 -3.22,4.43 -6.04,8.69 -8.48,12.77 -2.43,4.09 -4.82,8.48 -7.17,13.17 l -6.25,12.12 c 6.25,2.35 11.01,5.76 14.27,10.24 3.26,4.47 4.89,10.1 4.89,16.88 0,5.3 -0.91,9.66 -2.74,13.1 -1.82,3.43 -4.32,6.15 -7.49,8.15 -3.18,1.99 -6.91,3.39 -11.21,4.17 -4.31,0.78 -8.93,1.17 -13.89,1.17 z m 12.39,-10.04 h 11.6 c 2.08,0 4.34,-0.15 6.78,-0.45 2.43,-0.31 4.67,-1.05 6.71,-2.22 2.04,-1.17 3.74,-2.87 5.08,-5.08 1.35,-2.22 2.02,-5.28 2.02,-9.19 0,-2.7 -0.37,-5.18 -1.1,-7.43 -0.74,-2.27 -1.94,-4.22 -3.59,-5.87 -1.65,-1.65 -3.76,-2.93 -6.32,-3.85 -2.57,-0.91 -5.67,-1.36 -9.32,-1.36 h -11.86 z m 62.44,10.04 v -93.86 h 52.66 c 0.78,0 1.17,1.48 1.17,4.43 v 1.7 c 0,2.87 -0.39,4.3 -1.17,4.3 h -40.28 v 31.94 h 33.76 c 0.79,0 1.18,1.48 1.18,4.43 v 1.57 c 0,2.86 -0.39,4.3 -1.18,4.3 h -33.76 v 30.89 h 39.76 c 0.78,0 1.17,1.48 1.17,4.43 v 1.57 c 0,2.87 -0.39,4.3 -1.17,4.3 h -52.14" style="fill:#5d98d7;fill-opacity:1;fill-rule:nonzero;stroke:none" id="path64"/>
      <path d="m 2922.92,6159.16 c -1.92,-0.82 -3.59,-1.97 -5.02,-3.45 -1.44,-1.48 -2.57,-3.2 -3.39,-5.15 -0.83,-1.96 -1.24,-4.06 -1.24,-6.32 0,-2.18 0.41,-4.22 1.24,-6.13 0.82,-1.91 1.95,-3.58 3.39,-5.02 1.43,-1.43 3.1,-2.56 5.02,-3.39 1.91,-0.83 3.95,-1.24 6.12,-1.24 2.26,0 4.37,0.41 6.33,1.24 1.95,0.83 3.67,1.96 5.14,3.39 1.48,1.44 2.63,3.11 3.46,5.02 0.82,1.91 1.24,3.95 1.24,6.13 0,2.26 -0.42,4.36 -1.24,6.32 -0.83,1.95 -1.98,3.67 -3.46,5.15 -1.47,1.48 -3.19,2.63 -5.14,3.45 -1.96,0.83 -4.07,1.24 -6.33,1.24 -2.17,0 -4.21,-0.41 -6.12,-1.24" style="fill:#656263;fill-opacity:1;fill-rule:nonzero;stroke:none" id="path66"/>
      <path d="m 2285.21,6192.73 c -3.57,0 -5.35,-0.48 -5.35,-1.43 v -90.6 c 0,-0.7 0.33,-1.18 0.98,-1.44 0.65,-0.26 1.84,-0.39 3.58,-0.39 h 45.11 c 0.78,0 1.17,1.48 1.17,4.43 v 1.7 c 0,2.87 -0.39,4.3 -1.17,4.3 h -37.28 v 82 c 0,0.95 -1.87,1.43 -5.61,1.43 z m 60.61,0 v -93.86 h 52.67 c 0.78,0 1.17,1.48 1.17,4.43 v 1.7 c 0,2.87 -0.39,4.3 -1.17,4.3 h -40.28 v 31.94 h 33.76 c 0.78,0 1.17,1.48 1.17,4.43 v 1.57 c 0,2.86 -0.39,4.3 -1.17,4.3 h -33.76 v 30.89 h 39.76 c 0.78,0 1.17,1.48 1.17,4.43 v 1.57 c 0,2.87 -0.39,4.3 -1.17,4.3 z m 101.29,0 c -2.17,0 -3.67,-0.11 -4.5,-0.33 -0.82,-0.21 -1.32,-0.58 -1.5,-1.1 l -31.8,-90.99 c -0.18,-0.53 0.21,-0.9 1.17,-1.11 0.95,-0.22 2.35,-0.33 4.17,-0.33 h 1.7 c 3.47,0 5.38,0.48 5.73,1.44 l 7.69,22.94 h 36.76 l 7.7,-22.94 c 0.17,-0.53 0.78,-0.9 1.82,-1.11 1.04,-0.22 2.43,-0.33 4.17,-0.33 h 1.96 c 1.82,0 3.26,0.11 4.3,0.33 1.04,0.21 1.48,0.58 1.3,1.11 l -32.33,90.99 c -0.17,0.52 -0.69,0.89 -1.56,1.1 -0.87,0.22 -2.3,0.33 -4.3,0.33 z m 0.91,-13.04 15.39,-46.14 h -30.64 z m 53.19,13.04 v -92.42 c 0,-0.96 1.87,-1.44 5.6,-1.44 h 1.44 c 3.56,0 5.34,0.48 5.34,1.44 v 37.02 h 13.43 l 7.95,-15.51 c 2,-3.92 3.83,-7.41 5.48,-10.5 1.65,-3.08 3.73,-6.41 6.25,-9.97 0.44,-0.61 1.2,-1.17 2.29,-1.7 1.08,-0.52 2.62,-0.78 4.62,-0.78 h 2.48 c 1.91,0 3.34,0.22 4.3,0.65 0.96,0.44 1.26,0.92 0.91,1.44 -3.21,4.43 -6.04,8.69 -8.47,12.77 -2.43,4.09 -4.82,8.48 -7.17,13.17 l -6.26,12.12 c 6.26,2.35 11.02,5.76 14.28,10.24 3.26,4.47 4.89,10.1 4.89,16.88 0,5.3 -0.92,9.66 -2.74,13.1 -1.83,3.43 -4.32,6.15 -7.5,8.15 -3.17,1.99 -6.91,3.39 -11.21,4.17 -4.3,0.78 -8.93,1.17 -13.88,1.17 z m 12.38,-10.04 h 11.61 c 2.08,0 4.34,-0.15 6.77,-0.45 2.44,-0.31 4.67,-1.05 6.72,-2.22 2.04,-1.17 3.73,-2.87 5.08,-5.08 1.35,-2.22 2.02,-5.28 2.02,-9.19 0,-2.7 -0.37,-5.18 -1.11,-7.43 -0.74,-2.27 -1.93,-4.22 -3.58,-5.87 -1.65,-1.65 -3.76,-2.93 -6.32,-3.85 -2.57,-0.91 -5.67,-1.36 -9.32,-1.36 h -11.87 z m 68.05,10.04 c -2.43,0 -4.06,-0.09 -4.89,-0.26 -0.83,-0.18 -1.24,-0.57 -1.24,-1.17 v -90.99 c 0,-0.96 1.74,-1.44 5.22,-1.44 h 1.04 c 3.3,0 4.95,0.48 4.95,1.44 v 72.35 l 43.67,-72.09 c 0.44,-0.7 1.05,-1.16 1.83,-1.37 0.78,-0.22 2.56,-0.33 5.34,-0.33 h 0.39 c 2.44,0 4.07,0.09 4.89,0.26 0.83,0.18 1.24,0.57 1.24,1.18 v 90.99 c 0,0.95 -1.74,1.43 -5.21,1.43 h -1.05 c -3.3,0 -4.95,-0.48 -4.95,-1.43 v -72.48 l -43.41,72.22 c -0.44,0.69 -1.04,1.15 -1.82,1.36 -0.79,0.22 -2.57,0.33 -5.35,0.33 z m 81.47,0 c -0.43,0 -0.71,-0.22 -0.84,-0.65 -0.13,-0.44 -0.2,-1.48 -0.2,-3.13 v -1.43 c 0,-1.66 0.07,-2.7 0.2,-3.13 0.13,-0.44 0.41,-0.65 0.84,-0.65 h 9.52 v -75.87 h -9.52 c -0.43,0 -0.71,-0.22 -0.84,-0.66 -0.13,-0.43 -0.2,-1.47 -0.2,-3.12 v -1.44 c 0,-1.65 0.07,-2.69 0.2,-3.13 0.13,-0.43 0.41,-0.65 0.84,-0.65 h 31.42 c 0.69,0 1.04,1.22 1.04,3.65 v 1.57 c 0,2.52 -0.35,3.78 -1.04,3.78 h -9.52 v 75.87 h 9.52 c 0.69,0 1.04,1.25 1.04,3.78 v 1.56 c 0,2.43 -0.35,3.65 -1.04,3.65 z m 56.58,0 c -2.44,0 -4.07,-0.09 -4.89,-0.26 -0.83,-0.18 -1.24,-0.57 -1.24,-1.17 v -90.99 c 0,-0.96 1.74,-1.44 5.22,-1.44 h 1.04 c 3.3,0 4.95,0.48 4.95,1.44 v 72.35 l 43.67,-72.09 c 0.44,-0.7 1.05,-1.16 1.83,-1.37 0.78,-0.22 2.56,-0.33 5.34,-0.33 h 0.39 c 2.44,0 4.06,0.09 4.89,0.26 0.83,0.18 1.24,0.57 1.24,1.18 v 90.99 c 0,0.95 -1.74,1.43 -5.21,1.43 h -1.05 c -3.3,0 -4.95,-0.48 -4.95,-1.43 v -72.48 l -43.41,72.22 c -0.44,0.69 -1.04,1.15 -1.83,1.36 -0.78,0.22 -2.56,0.33 -5.34,0.33 z m 144.04,-11.08 c 0.7,1.22 1.02,2.22 0.98,3 -0.04,0.78 -0.28,1.3 -0.72,1.56 -3.21,2.43 -7.01,4.35 -11.4,5.74 -4.39,1.39 -9.37,2.08 -14.93,2.08 -6.6,0 -12.43,-1.15 -17.47,-3.45 -5.04,-2.3 -9.25,-5.61 -12.64,-9.91 -3.39,-4.3 -5.93,-9.47 -7.63,-15.51 -1.69,-6.04 -2.54,-12.8 -2.54,-20.27 0,-7.39 0.85,-13.99 2.54,-19.82 1.7,-5.82 4.19,-10.77 7.5,-14.86 3.3,-4.08 7.45,-7.21 12.45,-9.38 4.99,-2.17 10.84,-3.26 17.53,-3.26 2.78,0 5.56,0.19 8.34,0.59 2.78,0.39 5.48,0.89 8.09,1.49 2.6,0.61 5.06,1.31 7.36,2.09 2.3,0.78 4.37,1.56 6.19,2.35 v 45.1 h -32.72 c -0.78,0 -1.17,-1.43 -1.17,-4.3 v -1.83 c 0,-2.78 0.39,-4.17 1.17,-4.17 h 20.47 v -28.16 c -2.09,-0.87 -4.54,-1.54 -7.37,-2.02 -2.82,-0.47 -5.62,-0.71 -8.4,-0.71 -5.22,0 -9.67,0.91 -13.37,2.73 -3.69,1.83 -6.71,4.41 -9.06,7.76 -2.34,3.35 -4.06,7.32 -5.14,11.93 -1.09,4.6 -1.63,9.69 -1.63,15.25 0,5.74 0.56,10.93 1.69,15.58 1.13,4.65 2.85,8.65 5.15,11.99 2.3,3.35 5.21,5.91 8.73,7.69 3.52,1.78 7.67,2.68 12.45,2.68 3.65,0 7.24,-0.51 10.76,-1.5 3.52,-1 6.93,-2.55 10.23,-4.63 0.44,-0.26 0.98,-0.2 1.63,0.19 0.65,0.4 1.32,1.2 2.02,2.42 l 0.91,1.56" style="fill:#c33299;fill-opacity:1;fill-rule:nonzero;stroke:none" id="path68"/>
      <path d="m 2322.28,6302.37 c 0,2.26 0,4.49 0,6.71 0,2.22 0.04,4.17 0.11,5.85 0,0.58 0.02,1.18 0.06,1.8 0.03,0.62 0.05,1.18 0.05,1.69 0,0.58 -0.11,0.95 -0.33,1.09 -0.22,0.15 -0.91,0.22 -2.07,0.22 h -0.77 c -1.16,0 -1.95,-0.07 -2.34,-0.22 -0.41,-0.14 -0.64,-0.43 -0.71,-0.87 l -0.55,-5.79 c -1.68,2.4 -3.84,4.33 -6.5,5.79 -2.65,1.45 -5.88,2.18 -9.66,2.18 -3.64,0 -6.99,-0.73 -10.05,-2.18 -3.05,-1.46 -5.69,-3.53 -7.91,-6.22 -2.22,-2.7 -3.95,-5.96 -5.19,-9.78 -1.24,-3.82 -1.86,-8.06 -1.86,-12.72 0,-3.93 0.48,-7.66 1.42,-11.19 0.95,-3.53 2.41,-6.61 4.37,-9.23 1.97,-2.62 4.46,-4.69 7.48,-6.22 3.02,-1.53 6.61,-2.29 10.76,-2.29 3.85,0 7.33,0.76 10.42,2.29 3.1,1.53 5.48,3.71 7.16,6.55 l 0.87,-6.77 c 0.07,-0.36 0.27,-0.62 0.6,-0.76 0.33,-0.15 1.11,-0.22 2.35,-0.22 h 0.33 c 1.09,0 1.81,0.05 2.18,0.16 0.36,0.11 0.55,0.35 0.55,0.71 -0.3,3.86 -0.5,7.55 -0.6,11.08 -0.11,3.53 -0.17,7.66 -0.17,12.4 z m -7.1,-13.43 c 0,-2.55 -0.05,-4.71 -0.16,-6.5 -0.11,-1.78 -0.33,-3.31 -0.65,-4.58 -0.33,-1.28 -0.75,-2.37 -1.26,-3.28 -0.51,-0.91 -1.13,-1.8 -1.86,-2.67 -2.69,-2.99 -6.7,-4.48 -12.01,-4.48 -3.27,0 -6,0.65 -8.19,1.96 -2.18,1.31 -3.93,3.06 -5.24,5.24 -1.31,2.19 -2.24,4.66 -2.78,7.43 -0.55,2.77 -0.82,5.57 -0.82,8.41 0,7.28 1.58,13.06 4.75,17.36 3.16,4.29 7.51,6.44 13.05,6.44 3.49,0 6.44,-0.8 8.84,-2.4 2.4,-1.6 4.51,-3.79 6.33,-6.55 z m 49.47,25.33 c 0.36,0 0.58,0.17 0.65,0.49 0.07,0.33 0.11,1 0.11,2.02 v 0.33 c 0,1.02 -0.04,1.71 -0.11,2.08 -0.07,0.36 -0.29,0.54 -0.65,0.54 h -15.4 V 6336 c 0,0.22 -0.16,0.38 -0.49,0.49 -0.33,0.11 -1.22,0.17 -2.68,0.17 h -0.76 c -1.53,0 -2.44,-0.04 -2.73,-0.11 -0.29,-0.08 -0.44,-0.26 -0.44,-0.55 v -16.27 h -7.53 c -0.37,0 -0.58,-0.18 -0.66,-0.54 -0.07,-0.37 -0.11,-1.06 -0.11,-2.08 v -0.33 c 0,-1.02 0.04,-1.69 0.11,-2.02 0.08,-0.32 0.26,-0.49 0.55,-0.49 h 7.64 v -35.81 c 0,-3.64 0.28,-6.54 0.82,-8.68 0.55,-2.15 1.55,-3.95 3,-5.41 1.17,-1.02 2.61,-1.84 4.32,-2.46 1.71,-0.61 3.69,-0.92 5.95,-0.92 1.89,0 3.84,0.16 5.84,0.49 2,0.32 3.88,0.85 5.62,1.58 0.29,0.15 0.48,0.36 0.55,0.66 0.07,0.29 -0.04,0.94 -0.33,1.96 l -0.22,0.77 c -0.29,1.01 -0.49,1.63 -0.6,1.85 -0.11,0.22 -0.42,0.26 -0.92,0.11 -1.24,-0.44 -2.57,-0.76 -3.99,-0.98 -1.42,-0.22 -2.86,-0.33 -4.31,-0.33 -1.53,0 -2.83,0.16 -3.88,0.49 -1.06,0.33 -1.98,0.89 -2.78,1.69 -0.88,0.88 -1.42,2.1 -1.64,3.66 -0.22,1.57 -0.33,3.66 -0.33,6.28 v 35.05 z m 67.15,0 c 0.36,0 0.58,0.17 0.65,0.49 0.08,0.33 0.11,1 0.11,2.02 v 0.33 c 0,1.02 -0.03,1.71 -0.11,2.08 -0.07,0.36 -0.29,0.54 -0.65,0.54 h -15.4 V 6336 c 0,0.22 -0.16,0.38 -0.49,0.49 -0.33,0.11 -1.22,0.17 -2.67,0.17 h -0.77 c -1.53,0 -2.44,-0.04 -2.73,-0.11 -0.29,-0.08 -0.44,-0.26 -0.44,-0.55 v -16.27 h -7.53 c -0.36,0 -0.58,-0.18 -0.65,-0.54 -0.08,-0.37 -0.11,-1.06 -0.11,-2.08 v -0.33 c 0,-1.02 0.03,-1.69 0.11,-2.02 0.07,-0.32 0.25,-0.49 0.54,-0.49 h 7.64 v -35.81 c 0,-3.64 0.28,-6.54 0.82,-8.68 0.55,-2.15 1.55,-3.95 3.01,-5.41 1.16,-1.02 2.6,-1.84 4.31,-2.46 1.71,-0.61 3.69,-0.92 5.95,-0.92 1.89,0 3.84,0.16 5.84,0.49 2,0.32 3.88,0.85 5.63,1.58 0.29,0.15 0.47,0.36 0.54,0.66 0.07,0.29 -0.04,0.94 -0.33,1.96 l -0.21,0.77 c -0.3,1.01 -0.5,1.63 -0.6,1.85 -0.11,0.22 -0.42,0.26 -0.93,0.11 -1.24,-0.44 -2.57,-0.76 -3.99,-0.98 -1.42,-0.22 -2.86,-0.33 -4.31,-0.33 -1.53,0 -2.82,0.16 -3.88,0.49 -1.05,0.33 -1.98,0.89 -2.78,1.69 -0.88,0.88 -1.42,2.1 -1.64,3.66 -0.22,1.57 -0.33,3.66 -0.33,6.28 v 35.05 z m 21.73,29.81 c 0,0.66 -1.06,0.98 -3.17,0.98 h -0.87 c -0.88,0 -1.61,-0.07 -2.19,-0.21 -0.58,-0.15 -0.87,-0.41 -0.87,-0.77 v -80.8 c 0,-0.37 0.2,-0.66 0.6,-0.87 0.4,-0.22 1.26,-0.33 2.57,-0.33 h 0.87 c 1.16,0 1.96,0.11 2.4,0.33 0.44,0.21 0.66,0.5 0.66,0.87 v 21.51 c 0,3.35 0.01,6.42 0.05,9.23 0.04,2.8 0.13,5 0.27,6.6 0.15,1.46 0.51,2.88 1.1,4.26 0.58,1.38 1.31,2.58 2.18,3.6 1.67,1.75 3.58,3.08 5.73,3.99 2.15,0.91 4.75,1.36 7.81,1.36 2.69,0 5.08,-0.32 7.15,-0.98 2.08,-0.65 3.73,-1.71 4.97,-3.16 0.73,-0.88 1.33,-1.86 1.8,-2.95 0.47,-1.09 0.84,-2.35 1.09,-3.77 0.26,-1.42 0.42,-3.02 0.5,-4.8 0.07,-1.79 0.1,-3.88 0.1,-6.28 v -28.61 c 0,-0.37 0.2,-0.66 0.6,-0.87 0.4,-0.22 1.26,-0.33 2.57,-0.33 h 0.87 c 1.24,0 2.06,0.11 2.46,0.33 0.4,0.21 0.6,0.5 0.6,0.87 v 33.52 c 0,4.44 -0.42,8.14 -1.25,11.08 -0.84,2.95 -2.21,5.37 -4.1,7.27 -3.64,3.78 -8.84,5.67 -15.61,5.67 -4.3,0 -8.01,-0.76 -11.14,-2.29 -3.13,-1.53 -5.72,-3.71 -7.75,-6.55 z m 100.34,-55.47 c 0.58,0 0.99,0.15 1.2,0.44 0.22,0.29 0.33,1.05 0.33,2.29 0,3.28 -0.31,6.41 -0.93,9.39 -0.62,2.99 -1.54,5.75 -2.78,8.3 -1.82,3.64 -4.33,6.51 -7.54,8.63 -3.2,2.11 -7.17,3.16 -11.9,3.16 -4.08,0 -7.71,-0.8 -10.92,-2.4 -3.2,-1.6 -5.91,-3.78 -8.13,-6.55 -2.22,-2.77 -3.92,-6.06 -5.08,-9.88 -1.16,-3.82 -1.75,-7.96 -1.75,-12.4 0,-8.88 2.28,-15.87 6.83,-20.96 4.55,-5.1 11.08,-7.64 19.6,-7.64 7.13,0 13.43,1.42 18.89,4.25 0.65,0.37 0.69,1.31 0.11,2.84 l -0.44,1.1 c -0.44,1.09 -0.8,1.72 -1.09,1.91 -0.29,0.18 -0.73,0.12 -1.31,-0.17 -2.11,-1.02 -4.44,-1.82 -6.99,-2.4 -2.55,-0.58 -5.2,-0.87 -7.97,-0.87 -2.84,0 -5.42,0.36 -7.75,1.09 -2.33,0.73 -4.33,1.82 -6.01,3.27 -3.86,3.28 -5.93,8.81 -6.22,16.6 z m -39.74,5.68 c 0.36,3.57 1.07,6.62 2.13,9.17 1.05,2.55 2.36,4.6 3.93,6.17 1.56,1.57 3.36,2.71 5.4,3.44 2.04,0.73 4.22,1.09 6.55,1.09 2.77,0 5.14,-0.56 7.1,-1.69 1.97,-1.13 3.6,-2.62 4.91,-4.48 1.31,-1.85 2.28,-3.98 2.9,-6.38 0.62,-2.41 0.96,-4.85 1.04,-7.32 z m 89.1,49.79 c 0,0.66 -1.06,0.98 -3.17,0.98 h -0.87 c -0.88,0 -1.61,-0.07 -2.19,-0.21 -0.58,-0.15 -0.87,-0.41 -0.87,-0.77 v -80.8 c 0,-0.37 0.2,-0.66 0.6,-0.87 0.4,-0.22 1.25,-0.33 2.56,-0.33 h 0.88 c 1.16,0 1.96,0.11 2.4,0.33 0.44,0.21 0.66,0.5 0.66,0.87 v 21.51 c 0,3.35 0.01,6.42 0.05,9.23 0.04,2.8 0.13,5 0.27,6.6 0.15,1.46 0.51,2.88 1.1,4.26 0.58,1.38 1.31,2.58 2.18,3.6 1.67,1.75 3.58,3.08 5.73,3.99 2.15,0.91 4.75,1.36 7.81,1.36 2.69,0 5.08,-0.32 7.15,-0.98 2.08,-0.65 3.73,-1.71 4.97,-3.16 0.73,-0.88 1.33,-1.86 1.8,-2.95 0.47,-1.09 0.84,-2.35 1.09,-3.77 0.26,-1.42 0.42,-3.02 0.49,-4.8 0.08,-1.79 0.11,-3.88 0.11,-6.28 v -28.61 c 0,-0.37 0.2,-0.66 0.6,-0.87 0.4,-0.22 1.26,-0.33 2.57,-0.33 h 0.87 c 1.24,0 2.06,0.11 2.46,0.33 0.4,0.21 0.6,0.5 0.6,0.87 v 33.52 c 0,4.44 -0.42,8.14 -1.26,11.08 -0.83,2.95 -2.2,5.37 -4.09,7.27 -3.64,3.78 -8.84,5.67 -15.61,5.67 -4.3,0 -8.01,-0.76 -11.14,-2.29 -3.13,-1.53 -5.72,-3.71 -7.75,-6.55 z m 100.34,-55.47 c 0.58,0 0.98,0.15 1.2,0.44 0.22,0.29 0.33,1.05 0.33,2.29 0,3.28 -0.31,6.41 -0.93,9.39 -0.62,2.99 -1.55,5.75 -2.78,8.3 -1.82,3.64 -4.33,6.51 -7.54,8.63 -3.2,2.11 -7.17,3.16 -11.9,3.16 -4.08,0 -7.72,-0.8 -10.92,-2.4 -3.2,-1.6 -5.91,-3.78 -8.13,-6.55 -2.22,-2.77 -3.92,-6.06 -5.08,-9.88 -1.17,-3.82 -1.75,-7.96 -1.75,-12.4 0,-8.88 2.28,-15.87 6.83,-20.96 4.55,-5.1 11.08,-7.64 19.6,-7.64 7.13,0 13.43,1.42 18.89,4.25 0.65,0.37 0.69,1.31 0.11,2.84 l -0.44,1.1 c -0.44,1.09 -0.8,1.72 -1.09,1.91 -0.29,0.18 -0.73,0.12 -1.31,-0.17 -2.11,-1.02 -4.44,-1.82 -6.99,-2.4 -2.55,-0.58 -5.21,-0.87 -7.97,-0.87 -2.84,0 -5.43,0.36 -7.75,1.09 -2.33,0.73 -4.34,1.82 -6.01,3.27 -3.86,3.28 -5.93,8.81 -6.22,16.6 z m -39.74,5.68 c 0.36,3.57 1.07,6.62 2.12,9.17 1.06,2.55 2.37,4.6 3.94,6.17 1.56,1.57 3.36,2.71 5.4,3.44 2.04,0.73 4.22,1.09 6.55,1.09 2.77,0 5.13,-0.56 7.1,-1.69 1.97,-1.13 3.6,-2.62 4.91,-4.48 1.31,-1.85 2.28,-3.98 2.9,-6.38 0.61,-2.41 0.96,-4.85 1.03,-7.32 z m 99.03,8.08 c 0,2.26 0,4.49 0,6.71 0,2.22 0.04,4.17 0.11,5.85 0,0.58 0.02,1.18 0.05,1.8 0.04,0.62 0.06,1.18 0.06,1.69 0,0.58 -0.11,0.95 -0.33,1.09 -0.22,0.15 -0.91,0.22 -2.07,0.22 h -0.77 c -1.16,0 -1.95,-0.07 -2.34,-0.22 -0.41,-0.14 -0.64,-0.43 -0.71,-0.87 l -0.55,-5.79 c -1.68,2.4 -3.84,4.33 -6.5,5.79 -2.66,1.45 -5.88,2.18 -9.66,2.18 -3.64,0 -6.99,-0.73 -10.05,-2.18 -3.05,-1.46 -5.69,-3.53 -7.91,-6.22 -2.22,-2.7 -3.95,-5.96 -5.19,-9.78 -1.24,-3.82 -1.86,-8.06 -1.86,-12.72 0,-3.93 0.48,-7.66 1.42,-11.19 0.95,-3.53 2.41,-6.61 4.37,-9.23 1.97,-2.62 4.46,-4.69 7.48,-6.22 3.02,-1.53 6.61,-2.29 10.76,-2.29 3.85,0 7.33,0.76 10.42,2.29 3.1,1.53 5.48,3.71 7.16,6.55 l 0.87,-6.77 c 0.07,-0.36 0.27,-0.62 0.6,-0.76 0.33,-0.15 1.11,-0.22 2.35,-0.22 h 0.33 c 1.09,0 1.81,0.05 2.18,0.16 0.36,0.11 0.55,0.35 0.55,0.71 -0.3,3.86 -0.5,7.55 -0.61,11.08 -0.1,3.53 -0.16,7.66 -0.16,12.4 z m -7.1,-13.43 c 0,-2.55 -0.05,-4.71 -0.16,-6.5 -0.11,-1.78 -0.33,-3.31 -0.66,-4.58 -0.32,-1.28 -0.74,-2.37 -1.25,-3.28 -0.51,-0.91 -1.13,-1.8 -1.86,-2.67 -2.69,-2.99 -6.7,-4.48 -12.01,-4.48 -3.27,0 -6,0.65 -8.19,1.96 -2.18,1.31 -3.93,3.06 -5.24,5.24 -1.31,2.19 -2.24,4.66 -2.78,7.43 -0.55,2.77 -0.82,5.57 -0.82,8.41 0,7.28 1.58,13.06 4.75,17.36 3.16,4.29 7.51,6.44 13.05,6.44 3.49,0 6.44,-0.8 8.84,-2.4 2.4,-1.6 4.51,-3.79 6.33,-6.55 z m 30.9,30.03 c 0,0.22 -0.16,0.4 -0.49,0.54 -0.33,0.15 -1.22,0.22 -2.67,0.22 h -0.55 c -1.38,0 -2.24,-0.07 -2.57,-0.22 -0.32,-0.14 -0.49,-0.32 -0.49,-0.54 0.08,-3.06 0.13,-6.06 0.17,-9.01 0.03,-2.95 0.05,-5.92 0.05,-8.9 v -38 c 0,-0.36 0.2,-0.62 0.6,-0.76 0.4,-0.15 1.26,-0.22 2.57,-0.22 h 0.65 c 1.31,0 2.19,0.07 2.62,0.22 0.44,0.14 0.66,0.4 0.66,0.76 v 12.23 c 0,3.35 0.02,6.61 0.05,9.77 0.04,3.17 0.13,5.55 0.28,7.15 0.14,2.77 0.63,5.41 1.47,7.92 0.84,2.51 2.06,4.79 3.66,6.83 1.53,1.89 3.4,3.45 5.62,4.69 2.22,1.24 4.82,1.86 7.81,1.86 0.51,0 0.82,0.29 0.93,0.87 0.11,0.58 0.16,1.42 0.16,2.51 v 0.88 c 0,0.87 -0.05,1.45 -0.16,1.74 -0.11,0.29 -0.31,0.48 -0.6,0.55 -0.8,0.22 -1.9,0.33 -3.28,0.33 -3.27,0 -6.39,-1.2 -9.33,-3.61 -2.95,-2.4 -5.23,-5.89 -6.83,-10.48 z m 56.45,-4.7 c 0.37,0 0.59,0.17 0.66,0.49 0.07,0.33 0.11,1 0.11,2.02 v 0.33 c 0,1.02 -0.04,1.71 -0.11,2.08 -0.07,0.36 -0.29,0.54 -0.66,0.54 h -15.39 V 6336 c 0,0.22 -0.17,0.38 -0.49,0.49 -0.33,0.11 -1.22,0.17 -2.68,0.17 h -0.76 c -1.53,0 -2.44,-0.04 -2.73,-0.11 -0.29,-0.08 -0.44,-0.26 -0.44,-0.55 v -16.27 h -7.53 c -0.37,0 -0.59,-0.18 -0.66,-0.54 -0.07,-0.37 -0.11,-1.06 -0.11,-2.08 v -0.33 c 0,-1.02 0.04,-1.69 0.11,-2.02 0.07,-0.32 0.26,-0.49 0.55,-0.49 h 7.64 v -35.81 c 0,-3.64 0.27,-6.54 0.82,-8.68 0.55,-2.15 1.55,-3.95 3,-5.41 1.17,-1.02 2.6,-1.84 4.32,-2.46 1.7,-0.61 3.69,-0.92 5.95,-0.92 1.89,0 3.83,0.16 5.84,0.49 2,0.32 3.87,0.85 5.62,1.58 0.29,0.15 0.47,0.36 0.55,0.66 0.07,0.29 -0.04,0.94 -0.33,1.96 l -0.22,0.77 c -0.29,1.01 -0.49,1.63 -0.6,1.85 -0.11,0.22 -0.42,0.26 -0.93,0.11 -1.24,-0.44 -2.56,-0.76 -3.98,-0.98 -1.42,-0.22 -2.86,-0.33 -4.32,-0.33 -1.52,0 -2.82,0.16 -3.87,0.49 -1.06,0.33 -1.99,0.89 -2.79,1.69 -0.87,0.88 -1.42,2.1 -1.63,3.66 -0.22,1.57 -0.33,3.66 -0.33,6.28 v 35.05 z m 47.72,-12.88 c 1.02,3.05 2.4,5.55 4.15,7.48 1.75,1.92 3.75,3.33 6,4.2 2.26,0.87 4.63,1.31 7.1,1.31 3.42,0 6.26,-0.67 8.52,-2.02 2.25,-1.35 4.04,-3.11 5.35,-5.3 1.31,-2.18 2.24,-4.64 2.78,-7.37 0.55,-2.73 0.82,-5.47 0.82,-8.24 0,-4.37 -0.51,-8.06 -1.53,-11.08 -1.02,-3.02 -2.4,-5.5 -4.15,-7.43 -1.74,-1.93 -3.76,-3.33 -6.06,-4.2 -2.29,-0.88 -4.67,-1.31 -7.15,-1.31 -3.42,0 -6.24,0.67 -8.46,2.02 -2.22,1.34 -3.99,3.11 -5.3,5.29 -1.31,2.19 -2.23,4.64 -2.78,7.37 -0.55,2.73 -0.82,5.48 -0.82,8.25 0,4.29 0.51,7.97 1.53,11.03 z m 26.59,-38.44 c 3.31,1.31 6.13,3.28 8.46,5.9 2.33,2.62 4.13,5.88 5.41,9.77 1.27,3.89 1.91,8.43 1.91,13.59 0,5.25 -0.77,9.83 -2.3,13.76 -1.53,3.93 -3.64,7.1 -6.33,9.5 -2.11,1.89 -4.5,3.26 -7.15,4.1 -2.66,0.83 -5.63,1.25 -8.9,1.25 -4.08,0 -7.77,-0.65 -11.08,-1.96 -3.32,-1.31 -6.14,-3.28 -8.47,-5.9 -2.33,-2.62 -4.13,-5.88 -5.4,-9.77 -1.28,-3.9 -1.91,-8.43 -1.91,-13.6 0,-5.24 0.76,-9.82 2.29,-13.75 1.53,-3.93 3.64,-7.1 6.33,-9.5 2.11,-1.9 4.5,-3.26 7.16,-4.1 2.65,-0.83 5.62,-1.25 8.9,-1.25 4.07,0 7.76,0.65 11.08,1.96 z m 53.56,50.67 c 0.36,0 0.61,0.18 0.76,0.54 0.15,0.37 0.22,1.06 0.22,2.08 v 0.76 c 0,1.09 -0.07,1.82 -0.22,2.19 -0.15,0.36 -0.4,0.54 -0.76,0.54 h -13.43 v 4.26 c 0,2.77 0.18,5.2 0.54,7.32 0.36,2.11 1.02,3.89 1.97,5.35 0.94,1.45 2.22,2.56 3.82,3.33 1.6,0.76 3.67,1.14 6.22,1.14 1.46,0 2.84,-0.13 4.15,-0.38 1.31,-0.26 2.55,-0.56 3.71,-0.93 0.51,-0.14 0.88,-0.05 1.1,0.28 0.21,0.32 0.47,0.96 0.76,1.91 l 0.22,0.76 c 0.44,1.6 0.33,2.55 -0.33,2.84 -3.13,1.24 -6.44,1.86 -9.93,1.86 -6.92,0 -11.87,-2.06 -14.86,-6.17 -2.98,-4.12 -4.47,-9.81 -4.47,-17.09 v -4.48 h -7.65 c -0.36,0 -0.61,-0.18 -0.76,-0.54 -0.15,-0.37 -0.22,-1.1 -0.22,-2.19 v -0.76 c 0,-1.02 0.07,-1.71 0.22,-2.08 0.15,-0.36 0.4,-0.54 0.76,-0.54 h 7.65 v -50.45 c 0,-0.37 0.22,-0.64 0.65,-0.82 0.44,-0.18 1.28,-0.27 2.51,-0.27 h 0.88 c 1.16,0 1.96,0.09 2.4,0.27 0.44,0.18 0.66,0.45 0.66,0.82 v 50.45 z m 44.98,-12.23 c 1.02,3.05 2.4,5.55 4.15,7.48 1.75,1.92 3.75,3.33 6.01,4.2 2.25,0.87 4.62,1.31 7.09,1.31 3.42,0 6.26,-0.67 8.52,-2.02 2.26,-1.35 4.04,-3.11 5.35,-5.3 1.31,-2.18 2.24,-4.64 2.79,-7.37 0.54,-2.73 0.81,-5.47 0.81,-8.24 0,-4.37 -0.51,-8.06 -1.52,-11.08 -1.02,-3.02 -2.41,-5.5 -4.15,-7.43 -1.75,-1.93 -3.77,-3.33 -6.06,-4.2 -2.3,-0.88 -4.68,-1.31 -7.16,-1.31 -3.42,0 -6.24,0.67 -8.46,2.02 -2.22,1.34 -3.98,3.11 -5.29,5.29 -1.31,2.19 -2.24,4.64 -2.79,7.37 -0.54,2.73 -0.82,5.48 -0.82,8.25 0,4.29 0.51,7.97 1.53,11.03 z m 26.59,-38.44 c 3.31,1.31 6.13,3.28 8.46,5.9 2.33,2.62 4.13,5.88 5.41,9.77 1.27,3.89 1.91,8.43 1.91,13.59 0,5.25 -0.77,9.83 -2.29,13.76 -1.53,3.93 -3.65,7.1 -6.34,9.5 -2.11,1.89 -4.49,3.26 -7.15,4.1 -2.66,0.83 -5.62,1.25 -8.9,1.25 -4.08,0 -7.77,-0.65 -11.08,-1.96 -3.32,-1.31 -6.14,-3.28 -8.46,-5.9 -2.34,-2.62 -4.14,-5.88 -5.41,-9.77 -1.27,-3.9 -1.91,-8.43 -1.91,-13.6 0,-5.24 0.76,-9.82 2.29,-13.75 1.53,-3.93 3.64,-7.1 6.34,-9.5 2.11,-1.9 4.49,-3.26 7.15,-4.1 2.65,-0.83 5.62,-1.25 8.9,-1.25 4.07,0 7.77,0.65 11.08,1.96 z m 69.17,0.22 c 0.07,-0.51 0.26,-0.82 0.55,-0.93 0.29,-0.11 1.05,-0.16 2.29,-0.16 h 0.87 c 1.1,0 1.82,0.07 2.19,0.22 0.36,0.14 0.51,0.5 0.44,1.09 -0.15,3.06 -0.24,6 -0.28,8.84 -0.03,2.84 -0.05,5.68 -0.05,8.52 v 37.89 c 0,0.36 -0.2,0.64 -0.6,0.82 -0.4,0.18 -1.26,0.27 -2.57,0.27 h -0.87 c -1.31,0 -2.15,-0.09 -2.51,-0.27 -0.37,-0.18 -0.55,-0.46 -0.55,-0.82 v -27.19 c 0,-2.91 -0.11,-5.4 -0.33,-7.48 -0.22,-2.07 -0.51,-3.84 -0.87,-5.3 -0.37,-1.45 -0.86,-2.69 -1.47,-3.71 -0.62,-1.02 -1.3,-1.89 -2.02,-2.62 -1.46,-1.46 -3.21,-2.58 -5.25,-3.38 -2.03,-0.81 -4.44,-1.2 -7.2,-1.2 -5.61,0 -9.65,1.45 -12.12,4.36 -1.46,1.68 -2.33,3.86 -2.62,6.55 -0.3,2.7 -0.44,6.41 -0.44,11.14 v 28.83 c 0,0.36 -0.2,0.64 -0.6,0.82 -0.4,0.18 -1.26,0.27 -2.57,0.27 h -0.87 c -1.31,0 -2.15,-0.09 -2.51,-0.27 -0.37,-0.18 -0.55,-0.46 -0.55,-0.82 v -33.63 c 0,-4.52 0.38,-8.25 1.15,-11.19 0.76,-2.95 2.09,-5.37 3.98,-7.27 1.68,-1.89 3.93,-3.29 6.77,-4.2 2.84,-0.91 5.97,-1.36 9.39,-1.36 4.37,0 8.12,0.83 11.25,2.51 3.13,1.67 5.61,4.07 7.43,7.2 z m 30.03,55.8 c 0,0.22 -0.16,0.4 -0.49,0.54 -0.33,0.15 -1.22,0.22 -2.68,0.22 h -0.54 c -1.39,0 -2.24,-0.07 -2.57,-0.22 -0.33,-0.14 -0.49,-0.32 -0.49,-0.54 0.07,-3.06 0.12,-6.06 0.16,-9.01 0.04,-2.95 0.06,-5.92 0.06,-8.9 v -38 c 0,-0.36 0.2,-0.62 0.6,-0.76 0.4,-0.15 1.25,-0.22 2.56,-0.22 h 0.66 c 1.31,0 2.18,0.07 2.62,0.22 0.44,0.14 0.65,0.4 0.65,0.76 v 12.23 c 0,3.35 0.02,6.61 0.06,9.77 0.04,3.17 0.13,5.55 0.27,7.15 0.15,2.77 0.64,5.41 1.48,7.92 0.83,2.51 2.05,4.79 3.65,6.83 1.53,1.89 3.41,3.45 5.63,4.69 2.22,1.24 4.82,1.86 7.8,1.86 0.51,0 0.82,0.29 0.93,0.87 0.11,0.58 0.17,1.42 0.17,2.51 v 0.88 c 0,0.87 -0.06,1.45 -0.17,1.74 -0.11,0.29 -0.31,0.48 -0.6,0.55 -0.8,0.22 -1.89,0.33 -3.27,0.33 -3.28,0 -6.39,-1.2 -9.34,-3.61 -2.95,-2.4 -5.22,-5.89 -6.82,-10.48 z m 81.67,1.85 c -3.78,0 -7.3,-0.67 -10.53,-2.02 -3.24,-1.34 -6.05,-3.31 -8.41,-5.89 -2.37,-2.59 -4.22,-5.79 -5.57,-9.61 -1.35,-3.82 -2.02,-8.25 -2.02,-13.27 0,-4.08 0.51,-7.88 1.53,-11.41 1.02,-3.53 2.56,-6.61 4.64,-9.23 2.07,-2.62 4.69,-4.67 7.86,-6.17 3.17,-1.49 6.86,-2.23 11.08,-2.23 3.35,0 6.54,0.34 9.56,1.03 3.02,0.69 5.69,1.7 8.02,3.01 0.37,0.21 0.57,0.49 0.6,0.81 0.04,0.33 -0.12,0.93 -0.49,1.81 l -0.43,1.2 c -0.37,1.02 -0.7,1.65 -0.99,1.91 -0.29,0.25 -0.69,0.23 -1.2,-0.06 -2.11,-1.16 -4.37,-2 -6.77,-2.51 -2.4,-0.51 -4.91,-0.76 -7.53,-0.76 -3.35,0 -6.19,0.63 -8.52,1.91 -2.33,1.27 -4.2,2.96 -5.62,5.08 -1.42,2.11 -2.46,4.58 -3.11,7.42 -0.66,2.84 -0.99,5.79 -0.99,8.85 0,7.57 1.79,13.37 5.35,17.41 3.57,4.04 8.26,6.06 14.09,6.06 4.66,0 9.1,-1.27 13.32,-3.82 0.51,-0.29 0.93,-0.35 1.26,-0.16 0.32,0.18 0.74,0.78 1.25,1.8 l 0.44,0.87 c 0.51,1.02 0.76,1.71 0.76,2.08 0,0.36 -0.18,0.69 -0.54,0.98 -4.95,3.28 -10.63,4.91 -17.04,4.91 z m 35.38,-19.43 c 1.02,3.05 2.4,5.55 4.15,7.48 1.75,1.92 3.75,3.33 6,4.2 2.26,0.87 4.63,1.31 7.1,1.31 3.42,0 6.26,-0.67 8.52,-2.02 2.25,-1.35 4.04,-3.11 5.35,-5.3 1.31,-2.18 2.24,-4.64 2.78,-7.37 0.55,-2.73 0.82,-5.47 0.82,-8.24 0,-4.37 -0.51,-8.06 -1.53,-11.08 -1.02,-3.02 -2.4,-5.5 -4.15,-7.43 -1.74,-1.93 -3.76,-3.33 -6.06,-4.2 -2.29,-0.88 -4.67,-1.31 -7.15,-1.31 -3.42,0 -6.24,0.67 -8.46,2.02 -2.22,1.34 -3.99,3.11 -5.3,5.29 -1.31,2.19 -2.23,4.64 -2.78,7.37 -0.55,2.73 -0.82,5.48 -0.82,8.25 0,4.29 0.51,7.97 1.53,11.03 z m 26.59,-38.44 c 3.31,1.31 6.13,3.28 8.46,5.9 2.33,2.62 4.13,5.88 5.41,9.77 1.27,3.89 1.91,8.43 1.91,13.59 0,5.25 -0.77,9.83 -2.3,13.76 -1.53,3.93 -3.64,7.1 -6.33,9.5 -2.11,1.89 -4.5,3.26 -7.15,4.1 -2.66,0.83 -5.63,1.25 -8.9,1.25 -4.08,0 -7.77,-0.65 -11.08,-1.96 -3.32,-1.31 -6.14,-3.28 -8.47,-5.9 -2.33,-2.62 -4.13,-5.88 -5.4,-9.77 -1.28,-3.9 -1.91,-8.43 -1.91,-13.6 0,-5.24 0.76,-9.82 2.29,-13.75 1.53,-3.93 3.64,-7.1 6.33,-9.5 2.11,-1.9 4.5,-3.26 7.16,-4.1 2.65,-0.83 5.62,-1.25 8.89,-1.25 4.08,0 7.77,0.65 11.09,1.96 z m 33.03,56.78 h -0.88 c -1.09,0 -1.84,-0.05 -2.23,-0.16 -0.41,-0.11 -0.61,-0.38 -0.61,-0.82 0.15,-2.11 0.22,-4.41 0.22,-6.88 0,-2.48 0,-4.99 0,-7.53 v -41.28 c 0,-0.65 1.06,-0.98 3.17,-0.98 h 0.87 c 0.88,0 1.6,0.07 2.19,0.22 0.58,0.14 0.87,0.4 0.87,0.76 v 21.73 c 0,3.35 0.02,6.42 0.06,9.23 0.03,2.8 0.12,5 0.27,6.6 0.36,3.06 1.2,5.46 2.51,7.21 1.6,2.11 3.58,3.64 5.95,4.59 2.37,0.94 4.93,1.41 7.7,1.41 5.38,0 9.24,-1.38 11.57,-4.14 0.73,-0.88 1.33,-1.86 1.8,-2.95 0.48,-1.09 0.84,-2.35 1.1,-3.77 0.25,-1.42 0.41,-3.02 0.49,-4.8 0.07,-1.79 0.11,-3.88 0.11,-6.28 v -28.83 c 0,-0.65 1.05,-0.98 3.16,-0.98 h 0.88 c 0.87,0 1.6,0.07 2.18,0.22 0.58,0.14 0.87,0.4 0.87,0.76 v 29.7 c 0,3.35 0.11,5.97 0.33,7.86 0.37,3.06 1.2,5.46 2.51,7.21 1.6,2.11 3.55,3.64 5.85,4.59 2.29,0.94 4.89,1.41 7.8,1.41 5.39,0 9.25,-1.38 11.58,-4.14 0.72,-0.88 1.32,-1.86 1.8,-2.95 0.47,-1.09 0.83,-2.35 1.09,-3.77 0.26,-1.42 0.42,-3.02 0.49,-4.8 0.07,-1.79 0.11,-3.88 0.11,-6.28 v -28.83 c 0,-0.65 1.06,-0.98 3.17,-0.98 h 0.87 c 0.88,0 1.6,0.07 2.19,0.22 0.58,0.14 0.87,0.4 0.87,0.76 v 33.74 c 0,4.44 -0.42,8.14 -1.26,11.08 -0.83,2.95 -2.2,5.37 -4.09,7.27 -1.82,1.89 -4.06,3.31 -6.72,4.25 -2.65,0.95 -5.62,1.42 -8.9,1.42 -4.29,0 -8.1,-0.83 -11.41,-2.51 -3.31,-1.67 -6.13,-4.37 -8.46,-8.08 -0.36,1.02 -0.82,1.91 -1.36,2.68 -0.55,0.76 -1.15,1.51 -1.81,2.24 -3.64,3.78 -8.62,5.67 -14.96,5.67 -4.07,0 -7.66,-0.71 -10.75,-2.13 -3.1,-1.42 -5.66,-3.62 -7.7,-6.6 l -0.33,6.66 c 0,0.44 -0.23,0.71 -0.71,0.82 -0.47,0.11 -1.29,0.16 -2.45,0.16 z m 100.89,0 h -0.87 c -1.1,0 -1.84,-0.05 -2.24,-0.16 -0.4,-0.11 -0.6,-0.38 -0.6,-0.82 0.14,-2.11 0.22,-4.41 0.22,-6.88 0,-2.48 0,-4.99 0,-7.53 v -41.28 c 0,-0.65 1.05,-0.98 3.16,-0.98 h 0.88 c 0.87,0 1.6,0.07 2.18,0.22 0.58,0.14 0.87,0.4 0.87,0.76 v 21.73 c 0,3.35 0.02,6.42 0.06,9.23 0.03,2.8 0.12,5 0.27,6.6 0.36,3.06 1.2,5.46 2.51,7.21 1.6,2.11 3.59,3.64 5.95,4.59 2.37,0.94 4.93,1.41 7.7,1.41 5.39,0 9.25,-1.38 11.58,-4.14 0.72,-0.88 1.32,-1.86 1.8,-2.95 0.47,-1.09 0.83,-2.35 1.09,-3.77 0.25,-1.42 0.42,-3.02 0.49,-4.8 0.07,-1.79 0.11,-3.88 0.11,-6.28 v -28.83 c 0,-0.65 1.05,-0.98 3.17,-0.98 h 0.87 c 0.87,0 1.6,0.07 2.18,0.22 0.59,0.14 0.88,0.4 0.88,0.76 v 29.7 c 0,3.35 0.11,5.97 0.33,7.86 0.36,3.06 1.2,5.46 2.51,7.21 1.6,2.11 3.55,3.64 5.84,4.59 2.29,0.94 4.89,1.41 7.81,1.41 5.38,0 9.24,-1.38 11.57,-4.14 0.73,-0.88 1.33,-1.86 1.8,-2.95 0.47,-1.09 0.84,-2.35 1.09,-3.77 0.26,-1.42 0.42,-3.02 0.5,-4.8 0.07,-1.79 0.1,-3.88 0.1,-6.28 v -28.83 c 0,-0.65 1.06,-0.98 3.17,-0.98 h 0.87 c 0.88,0 1.6,0.07 2.19,0.22 0.58,0.14 0.87,0.4 0.87,0.76 v 33.74 c 0,4.44 -0.42,8.14 -1.25,11.08 -0.84,2.95 -2.21,5.37 -4.1,7.27 -1.82,1.89 -4.06,3.31 -6.71,4.25 -2.66,0.95 -5.63,1.42 -8.9,1.42 -4.3,0 -8.1,-0.83 -11.41,-2.51 -3.32,-1.67 -6.14,-4.37 -8.47,-8.08 -0.36,1.02 -0.81,1.91 -1.36,2.68 -0.55,0.76 -1.15,1.51 -1.8,2.24 -3.64,3.78 -8.63,5.67 -14.96,5.67 -4.08,0 -7.66,-0.71 -10.76,-2.13 -3.09,-1.42 -5.66,-3.62 -7.7,-6.6 l -0.32,6.66 c 0,0.44 -0.24,0.71 -0.71,0.82 -0.48,0.11 -1.3,0.16 -2.46,0.16 z m 137.04,-56.56 c 0.07,-0.51 0.25,-0.82 0.54,-0.93 0.29,-0.11 1.06,-0.16 2.29,-0.16 h 0.88 c 1.09,0 1.82,0.07 2.18,0.22 0.37,0.14 0.51,0.5 0.44,1.09 -0.15,3.06 -0.24,6 -0.27,8.84 -0.04,2.84 -0.06,5.68 -0.06,8.52 v 37.89 c 0,0.36 -0.2,0.64 -0.6,0.82 -0.4,0.18 -1.25,0.27 -2.57,0.27 h -0.87 c -1.31,0 -2.15,-0.09 -2.51,-0.27 -0.37,-0.18 -0.55,-0.46 -0.55,-0.82 v -27.19 c 0,-2.91 -0.11,-5.4 -0.32,-7.48 -0.22,-2.07 -0.51,-3.84 -0.88,-5.3 -0.36,-1.45 -0.85,-2.69 -1.47,-3.71 -0.62,-1.02 -1.29,-1.89 -2.02,-2.62 -1.46,-1.46 -3.21,-2.58 -5.24,-3.38 -2.04,-0.81 -4.44,-1.2 -7.21,-1.2 -5.61,0 -9.65,1.45 -12.12,4.36 -1.46,1.68 -2.33,3.86 -2.62,6.55 -0.29,2.7 -0.44,6.41 -0.44,11.14 v 28.83 c 0,0.36 -0.2,0.64 -0.6,0.82 -0.4,0.18 -1.25,0.27 -2.56,0.27 h -0.88 c -1.31,0 -2.15,-0.09 -2.51,-0.27 -0.36,-0.18 -0.54,-0.46 -0.54,-0.82 v -33.63 c 0,-4.52 0.38,-8.25 1.14,-11.19 0.77,-2.95 2.09,-5.37 3.99,-7.27 1.67,-1.89 3.93,-3.29 6.77,-4.2 2.84,-0.91 5.97,-1.36 9.39,-1.36 4.37,0 8.11,0.83 11.24,2.51 3.13,1.67 5.61,4.07 7.43,7.2 z m 29.91,55.58 c 0,0.36 -0.22,0.62 -0.65,0.76 -0.44,0.15 -1.2,0.22 -2.29,0.22 h -0.77 c -1.96,0 -2.95,-0.33 -2.95,-0.98 0.15,-2.48 0.22,-4.93 0.22,-7.37 0,-2.44 0,-4.79 0,-7.04 v -41.06 c 0,-0.37 0.2,-0.66 0.6,-0.87 0.4,-0.22 1.26,-0.33 2.57,-0.33 h 0.87 c 1.16,0 1.97,0.11 2.4,0.33 0.44,0.21 0.66,0.5 0.66,0.87 v 21.51 c 0,3.35 0.02,6.42 0.05,9.23 0.04,2.8 0.13,5 0.28,6.6 0.14,1.46 0.5,2.88 1.09,4.26 0.58,1.38 1.31,2.58 2.18,3.6 1.68,1.75 3.59,3.08 5.73,3.99 2.15,0.91 4.75,1.36 7.81,1.36 2.69,0 5.08,-0.32 7.15,-0.98 2.08,-0.65 3.73,-1.71 4.97,-3.16 0.73,-0.88 1.33,-1.86 1.8,-2.95 0.48,-1.09 0.84,-2.35 1.1,-3.77 0.25,-1.42 0.41,-3.02 0.49,-4.8 0.07,-1.79 0.11,-3.88 0.11,-6.28 v -28.61 c 0,-0.37 0.2,-0.66 0.6,-0.87 0.4,-0.22 1.25,-0.33 2.56,-0.33 h 0.88 c 1.23,0 2.05,0.11 2.45,0.33 0.4,0.21 0.6,0.5 0.6,0.87 v 33.52 c 0,4.44 -0.42,8.14 -1.25,11.08 -0.84,2.95 -2.2,5.37 -4.1,7.27 -3.64,3.78 -8.84,5.67 -15.61,5.67 -4.37,0 -8.14,-0.78 -11.3,-2.34 -3.17,-1.57 -5.81,-3.81 -7.92,-6.72 z m 56.51,16.7 c 1.13,-1.09 2.46,-1.63 3.98,-1.63 1.53,0 2.86,0.54 3.99,1.63 1.13,1.1 1.69,2.48 1.69,4.15 0,1.68 -0.56,3.08 -1.69,4.21 -1.13,1.13 -2.46,1.69 -3.99,1.69 -1.52,0 -2.85,-0.56 -3.98,-1.69 -1.13,-1.13 -1.69,-2.53 -1.69,-4.21 0,-1.67 0.56,-3.05 1.69,-4.15 z m 0.38,-72.28 c 0,-0.37 0.2,-0.64 0.6,-0.82 0.4,-0.18 1.26,-0.27 2.57,-0.27 h 0.87 c 1.24,0 2.06,0.09 2.46,0.27 0.4,0.18 0.6,0.45 0.6,0.82 v 55.58 c 0,0.36 -0.22,0.62 -0.66,0.76 -0.43,0.15 -1.27,0.22 -2.51,0.22 h -0.87 c -1.17,0 -1.97,-0.07 -2.4,-0.22 -0.44,-0.14 -0.66,-0.4 -0.66,-0.76 z m 49.36,51.1 c 0.36,0 0.58,0.17 0.65,0.49 0.07,0.33 0.11,1 0.11,2.02 v 0.33 c 0,1.02 -0.04,1.71 -0.11,2.08 -0.07,0.36 -0.29,0.54 -0.65,0.54 h -15.4 V 6336 c 0,0.22 -0.16,0.38 -0.49,0.49 -0.33,0.11 -1.22,0.17 -2.68,0.17 h -0.76 c -1.53,0 -2.44,-0.04 -2.73,-0.11 -0.29,-0.08 -0.44,-0.26 -0.44,-0.55 v -16.27 h -7.53 c -0.37,0 -0.59,-0.18 -0.66,-0.54 -0.07,-0.37 -0.11,-1.06 -0.11,-2.08 v -0.33 c 0,-1.02 0.04,-1.69 0.11,-2.02 0.07,-0.32 0.26,-0.49 0.55,-0.49 h 7.64 v -35.81 c 0,-3.64 0.27,-6.54 0.82,-8.68 0.55,-2.15 1.55,-3.95 3,-5.41 1.17,-1.02 2.61,-1.84 4.32,-2.46 1.71,-0.61 3.69,-0.92 5.95,-0.92 1.89,0 3.84,0.16 5.84,0.49 2,0.32 3.88,0.85 5.62,1.58 0.29,0.15 0.48,0.36 0.55,0.66 0.07,0.29 -0.04,0.94 -0.33,1.96 l -0.22,0.77 c -0.29,1.01 -0.49,1.63 -0.6,1.85 -0.11,0.22 -0.42,0.26 -0.93,0.11 -1.23,-0.44 -2.56,-0.76 -3.98,-0.98 -1.42,-0.22 -2.86,-0.33 -4.31,-0.33 -1.53,0 -2.83,0.16 -3.88,0.49 -1.06,0.33 -1.99,0.89 -2.79,1.69 -0.87,0.88 -1.41,2.1 -1.63,3.66 -0.22,1.57 -0.33,3.66 -0.33,6.28 v 35.05 z m 14.24,21.18 c 1.13,-1.09 2.46,-1.63 3.99,-1.63 1.53,0 2.86,0.54 3.98,1.63 1.13,1.1 1.7,2.48 1.7,4.15 0,1.68 -0.57,3.08 -1.7,4.21 -1.12,1.13 -2.45,1.69 -3.98,1.69 -1.53,0 -2.86,-0.56 -3.99,-1.69 -1.13,-1.13 -1.69,-2.53 -1.69,-4.21 0,-1.67 0.56,-3.05 1.69,-4.15 z m 0.39,-72.28 c 0,-0.37 0.2,-0.64 0.6,-0.82 0.4,-0.18 1.25,-0.27 2.56,-0.27 h 0.88 c 1.23,0 2.05,0.09 2.45,0.27 0.4,0.18 0.6,0.45 0.6,0.82 v 55.58 c 0,0.36 -0.21,0.62 -0.65,0.76 -0.44,0.15 -1.28,0.22 -2.51,0.22 h -0.88 c -1.16,0 -1.96,-0.07 -2.4,-0.22 -0.44,-0.14 -0.65,-0.4 -0.65,-0.76 z m 68.24,25.44 c 0.58,0 0.98,0.15 1.2,0.44 0.22,0.29 0.33,1.05 0.33,2.29 0,3.28 -0.31,6.41 -0.93,9.39 -0.62,2.99 -1.55,5.75 -2.78,8.3 -1.82,3.64 -4.34,6.51 -7.54,8.63 -3.2,2.11 -7.17,3.16 -11.9,3.16 -4.08,0 -7.72,-0.8 -10.92,-2.4 -3.2,-1.6 -5.91,-3.78 -8.13,-6.55 -2.23,-2.77 -3.92,-6.06 -5.08,-9.88 -1.17,-3.82 -1.75,-7.96 -1.75,-12.4 0,-8.88 2.28,-15.87 6.83,-20.96 4.54,-5.1 11.08,-7.64 19.6,-7.64 7.13,0 13.43,1.42 18.89,4.25 0.65,0.37 0.69,1.31 0.11,2.84 l -0.44,1.1 c -0.44,1.09 -0.8,1.72 -1.09,1.91 -0.3,0.18 -0.73,0.12 -1.31,-0.17 -2.12,-1.02 -4.44,-1.82 -6.99,-2.4 -2.55,-0.58 -5.21,-0.87 -7.97,-0.87 -2.84,0 -5.43,0.36 -7.76,1.09 -2.33,0.73 -4.33,1.82 -6,3.27 -3.86,3.28 -5.93,8.81 -6.23,16.6 z m -39.75,5.68 c 0.37,3.57 1.08,6.62 2.13,9.17 1.06,2.55 2.37,4.6 3.93,6.17 1.57,1.57 3.37,2.71 5.41,3.44 2.04,0.73 4.22,1.09 6.55,1.09 2.77,0 5.13,-0.56 7.1,-1.69 1.96,-1.13 3.6,-2.62 4.91,-4.48 1.31,-1.85 2.28,-3.98 2.9,-6.38 0.61,-2.41 0.96,-4.85 1.03,-7.32 z m 87.9,18.02 c 0.58,0.8 0.91,1.4 0.98,1.8 0.08,0.4 -0.07,0.74 -0.43,1.04 -2.26,1.74 -4.88,3.12 -7.86,4.14 -2.99,1.02 -6.12,1.53 -9.39,1.53 -2.84,0 -5.43,-0.36 -7.76,-1.09 -2.33,-0.73 -4.35,-1.78 -6.06,-3.17 -1.71,-1.38 -3.04,-3.09 -3.98,-5.13 -0.95,-2.04 -1.42,-4.37 -1.42,-6.99 0,-4.36 1.49,-7.86 4.47,-10.48 1.39,-1.24 3.19,-2.29 5.41,-3.16 2.22,-0.88 4.68,-1.64 7.37,-2.3 2.33,-0.58 4.38,-1.16 6.17,-1.74 1.78,-0.59 3.29,-1.28 4.53,-2.08 1.24,-0.8 2.17,-1.77 2.79,-2.89 0.61,-1.13 0.92,-2.53 0.92,-4.21 0,-3.78 -1.29,-6.51 -3.87,-8.19 -2.59,-1.67 -6.06,-2.51 -10.43,-2.51 -2.48,0 -5.01,0.44 -7.59,1.31 -2.58,0.88 -4.9,1.93 -6.93,3.17 -0.44,0.29 -0.82,0.34 -1.15,0.16 -0.33,-0.18 -0.78,-0.85 -1.36,-2.02 l -0.33,-0.65 c -0.51,-0.95 -0.79,-1.59 -0.82,-1.91 -0.04,-0.33 0.13,-0.6 0.49,-0.82 2.11,-1.39 4.66,-2.59 7.64,-3.61 2.99,-1.01 6.41,-1.52 10.27,-1.52 6.11,0 11.08,1.49 14.9,4.47 3.82,2.99 5.74,7.32 5.74,13 0,2.69 -0.46,4.93 -1.37,6.71 -0.91,1.78 -2.18,3.28 -3.82,4.48 -1.64,1.2 -3.55,2.2 -5.73,3 -2.19,0.8 -4.59,1.53 -7.21,2.19 -1.89,0.5 -3.62,1 -5.19,1.47 -1.56,0.47 -2.95,1.07 -4.15,1.8 -1.2,0.73 -2.13,1.66 -2.78,2.79 -0.66,1.12 -0.98,2.6 -0.98,4.42 0,3.06 1.07,5.38 3.22,6.99 2.14,1.6 5.07,2.4 8.79,2.4 2.76,0 5.26,-0.37 7.48,-1.09 2.22,-0.73 4.38,-1.82 6.49,-3.28 0.37,-0.29 0.73,-0.36 1.1,-0.22 0.36,0.15 0.83,0.66 1.42,1.53 l 0.43,0.66" style="fill:#231f20;fill-opacity:1;fill-rule:nonzero;stroke:none" id="path70"/>
      <path d="m 2307.86,6469.86 h 11.31 c 7.23,0 12.96,-0.5 17.2,-1.5 4.23,-1 7.73,-2.89 10.5,-5.66 3.54,-3.54 5.31,-8.85 5.31,-15.92 0,-3.7 -0.58,-6.97 -1.73,-9.82 -1.15,-2.84 -2.73,-5.11 -4.73,-6.81 -3.23,-2.77 -7.04,-4.58 -11.43,-5.42 -4.39,-0.85 -9.35,-1.27 -14.89,-1.27 h -11.54 z m 0,66.94 h 8.31 c 5.85,0 10.62,-0.5 14.31,-1.5 3.7,-1 6.62,-2.57 8.77,-4.73 3.24,-3.23 4.85,-7.77 4.85,-13.62 0,-6.62 -2.08,-11.77 -6.23,-15.46 -4.77,-4.16 -12,-6.24 -21.7,-6.24 h -8.31 z m -23.09,26.55 c -4.46,0 -7.31,-0.19 -8.54,-0.58 -1.23,-0.38 -1.84,-1.34 -1.84,-2.88 v -159.28 c 0,-1.54 0.61,-2.51 1.84,-2.89 1.23,-0.38 4.08,-0.58 8.54,-0.58 h 34.17 c 13.23,0 24.35,1.35 33.36,4.04 9,2.69 16.42,7.2 22.27,13.51 7.7,8.15 11.55,18.7 11.55,31.62 0,10.31 -2.77,18.62 -8.31,24.93 -5.55,6.31 -13.01,11.16 -22.4,14.55 8.62,4.77 14.51,10.19 17.66,16.27 3.16,6.08 4.74,12.35 4.74,18.82 0,10.77 -3.47,19.77 -10.39,27.01 -5.39,5.84 -12.35,9.88 -20.89,12.11 -8.55,2.23 -19.05,3.35 -31.51,3.35 z m 191.6,-55.63 c -2.62,3.84 -6.54,7.08 -11.77,9.69 -5.23,2.62 -11,3.93 -17.31,3.93 -6.93,0 -13.47,-1.47 -19.63,-4.39 -6.15,-2.92 -11.58,-7.15 -16.27,-12.69 -4.7,-5.54 -8.39,-12.39 -11.08,-20.55 -2.69,-8.16 -4.04,-17.47 -4.04,-27.93 0,-9.55 1.11,-18.05 3.35,-25.51 2.23,-7.47 5.46,-13.85 9.69,-19.16 4.23,-5.31 9.39,-9.35 15.47,-12.12 6.08,-2.77 12.89,-4.15 20.43,-4.15 5.85,0 11.69,1.19 17.54,3.57 5.85,2.39 10.54,5.58 14.08,9.58 0.31,-1.38 0.58,-2.85 0.81,-4.38 0.23,-1.54 0.5,-2.7 0.81,-3.47 0.46,-1.23 1.5,-2.04 3.12,-2.42 1.61,-0.38 5.27,-0.58 10.96,-0.58 h 1.16 c 3.23,0 5.77,0.08 7.61,0.23 1.85,0.16 3.2,0.39 4.04,0.7 0.85,0.3 1.31,0.73 1.39,1.27 0.07,0.53 0.11,1.19 0.11,1.96 -0.46,6.31 -0.84,14.04 -1.15,23.2 -0.31,9.15 -0.46,18.27 -0.46,27.35 v 14.09 c 0,4.76 0.03,9.69 0.11,14.77 0.08,5.08 0.12,9.89 0.12,14.43 0,4.53 0.04,8.65 0.11,12.35 0.08,3.69 0.12,6.46 0.12,8.31 0,1.23 -0.77,2.08 -2.31,2.54 -1.54,0.46 -5.23,0.69 -11.08,0.69 h -1.38 c -3.08,0 -5.51,-0.08 -7.28,-0.23 -1.77,-0.16 -3.11,-0.35 -4.04,-0.58 -0.92,-0.23 -1.54,-0.54 -1.84,-0.92 -0.31,-0.39 -0.46,-0.81 -0.46,-1.27 z m -2.77,-66.48 c 0,-2.77 -0.23,-5.2 -0.69,-7.28 -0.46,-2.07 -1.31,-3.96 -2.54,-5.65 -1.69,-2.16 -4.08,-3.85 -7.16,-5.08 -3.08,-1.23 -6.46,-1.85 -10.15,-1.85 -4.62,0 -8.51,0.89 -11.66,2.66 -3.16,1.76 -5.66,4.19 -7.5,7.27 -1.85,3.08 -3.16,6.81 -3.93,11.19 -0.77,4.39 -1.15,9.12 -1.15,14.2 0,12.01 2,21.2 6,27.59 4,6.38 10.23,9.58 18.7,9.58 4,0 7.81,-1.01 11.43,-3 3.61,-2.01 6.5,-4.7 8.65,-8.08 z m 66.02,77.79 c -3.23,0 -5.81,-0.08 -7.73,-0.23 -1.93,-0.16 -3.35,-0.39 -4.27,-0.69 -0.92,-0.31 -1.46,-0.74 -1.62,-1.27 -0.15,-0.54 -0.23,-1.2 -0.23,-1.97 0.46,-6.31 0.85,-14.04 1.16,-23.2 0.3,-9.15 0.46,-18.27 0.46,-27.35 v -63.71 c 0,-0.62 0.11,-1.16 0.34,-1.62 0.24,-0.46 0.85,-0.81 1.85,-1.04 1,-0.23 2.54,-0.42 4.62,-0.58 2.08,-0.15 4.96,-0.23 8.66,-0.23 h 1.15 c 3.38,0 6.08,0.08 8.08,0.23 2,0.16 3.5,0.35 4.5,0.58 1,0.23 1.65,0.58 1.96,1.04 0.31,0.46 0.46,1 0.46,1.62 v 33.24 c 0,10.92 0.7,19.81 2.08,26.66 1.39,6.85 3.54,12.5 6.47,16.97 3.07,4.46 6.73,8.04 10.96,10.73 4.23,2.69 9.58,4.35 16.04,4.97 0.62,0 1.16,0.11 1.62,0.34 0.46,0.23 0.81,0.73 1.04,1.5 0.23,0.77 0.38,2 0.46,3.7 0.08,1.69 0.12,4 0.12,6.92 v 3.23 c 0,2.62 -0.04,4.66 -0.12,6.12 -0.08,1.46 -0.19,2.58 -0.35,3.35 -0.15,0.77 -0.34,1.27 -0.57,1.5 -0.23,0.23 -0.58,0.42 -1.04,0.57 -1.39,0.62 -3.39,0.93 -6,0.93 -7.39,0 -13.62,-2.47 -18.7,-7.39 -5.08,-4.93 -9.47,-12.16 -13.16,-21.7 -0.15,2.31 -0.35,4.73 -0.58,7.27 -0.23,2.54 -0.46,4.97 -0.69,7.28 -0.23,2.3 -0.5,4.3 -0.81,6 -0.31,1.69 -0.54,2.77 -0.69,3.23 -0.31,1.23 -1.31,2.04 -3,2.42 -1.7,0.39 -5.39,0.58 -11.08,0.58 z m 81.95,0 c -3.23,0 -5.81,-0.08 -7.73,-0.23 -1.93,-0.16 -3.35,-0.39 -4.27,-0.69 -0.93,-0.31 -1.47,-0.74 -1.62,-1.27 -0.15,-0.54 -0.23,-1.2 -0.23,-1.97 0.46,-6.31 0.84,-14.04 1.15,-23.2 0.31,-9.15 0.47,-18.27 0.47,-27.35 v -63.71 c 0,-0.62 0.11,-1.16 0.34,-1.62 0.23,-0.46 0.85,-0.81 1.85,-1.04 1,-0.23 2.54,-0.42 4.62,-0.58 2.07,-0.15 4.96,-0.23 8.65,-0.23 h 1.16 c 3.38,0 6.07,0.08 8.08,0.23 1.99,0.16 3.49,0.35 4.5,0.58 1,0.23 1.65,0.58 1.96,1.04 0.31,0.46 0.46,1 0.46,1.62 v 54.01 c 0,4.47 0,8.7 0,12.7 0,4 0.15,7.31 0.46,9.93 0.31,2.77 0.85,5.11 1.62,7.04 0.77,1.92 2.38,3.65 4.85,5.19 2.15,1.23 4.61,2.16 7.38,2.77 2.77,0.61 5.46,0.93 8.08,0.93 3.39,0 6.43,-0.47 9.12,-1.39 2.69,-0.92 4.81,-2.23 6.35,-3.92 0.92,-1.08 1.69,-2.24 2.31,-3.47 0.61,-1.23 1.07,-2.77 1.38,-4.61 0.31,-1.85 0.54,-4.12 0.7,-6.81 0.15,-2.7 0.23,-6.05 0.23,-10.05 v -62.32 c 0,-0.62 0.11,-1.16 0.34,-1.62 0.23,-0.46 0.85,-0.81 1.85,-1.04 1,-0.23 2.54,-0.42 4.62,-0.58 2.07,-0.15 4.96,-0.23 8.65,-0.23 h 1.16 c 3.38,0 6.08,0.08 8.08,0.23 2,0.16 3.5,0.35 4.5,0.58 1,0.23 1.65,0.58 1.96,1.04 0.31,0.46 0.46,1 0.46,1.62 v 71.1 c 0,8.77 -0.84,16.08 -2.54,21.93 -1.69,5.84 -4.46,10.92 -8.31,15.23 -3.54,4 -8,7.08 -13.39,9.24 -5.38,2.15 -11.62,3.23 -18.69,3.23 -7.08,0 -13.51,-1.35 -19.28,-4.04 -5.77,-2.7 -10.5,-6.2 -14.2,-10.5 -0.31,1.69 -0.57,3.38 -0.8,5.07 -0.24,1.7 -0.51,3.08 -0.81,4.16 -0.46,1.23 -1.54,2.04 -3.23,2.42 -1.7,0.39 -5.39,0.58 -11.09,0.58 z m 215.15,-71.79 c 0.92,0 1.53,0.88 1.84,2.65 0.31,1.77 0.46,4.89 0.46,9.35 0,8.92 -1.11,17.2 -3.34,24.82 -2.24,7.61 -5.62,14.19 -10.16,19.73 -4.54,5.54 -10.12,9.85 -16.74,12.93 -6.62,3.08 -14.31,4.62 -23.08,4.62 -8.77,0 -16.7,-1.58 -23.78,-4.73 -7.08,-3.16 -13.04,-7.62 -17.89,-13.39 -4.85,-5.77 -8.58,-12.62 -11.19,-20.55 -2.62,-7.93 -3.93,-16.58 -3.93,-25.97 0,-9.85 1.39,-18.58 4.16,-26.2 2.77,-7.62 6.73,-14.08 11.88,-19.39 5.16,-5.31 11.39,-9.35 18.7,-12.12 7.31,-2.77 15.51,-4.15 24.59,-4.15 8.15,0 16.19,1.03 24.12,3.11 7.93,2.08 14.81,4.73 20.66,7.97 1.39,0.76 2.12,1.76 2.19,3 0.08,1.23 -0.57,3.84 -1.96,7.85 l -2.08,5.77 c -1.23,3.54 -2.27,5.69 -3.11,6.46 -0.85,0.77 -1.89,0.84 -3.12,0.23 -5.23,-2.16 -10.54,-3.92 -15.93,-5.31 -5.38,-1.38 -10.93,-2.08 -16.62,-2.08 -8.77,0 -15.73,2.16 -20.89,6.47 -5.16,4.3 -8.35,10.62 -9.58,18.93 z m -74.8,22.62 c 1.54,7.85 4.31,13.97 8.31,18.35 4,4.39 9.24,6.58 15.7,6.58 6.46,0 11.46,-2.35 15,-7.04 3.54,-4.7 5.7,-10.66 6.47,-17.89 z m 115.42,82.41 c -3.69,0 -6.58,-0.08 -8.66,-0.23 -2.07,-0.15 -3.61,-0.35 -4.61,-0.58 -1,-0.23 -1.62,-0.57 -1.85,-1.04 -0.23,-0.46 -0.34,-1 -0.34,-1.61 v -29.78 h -15.93 c -1.08,0 -1.85,-0.54 -2.31,-1.62 -0.46,-1.07 -0.69,-4.38 -0.69,-9.92 v -1.62 c 0,-5.54 0.23,-8.85 0.69,-9.92 0.46,-1.08 1.23,-1.62 2.31,-1.62 h 15.93 v -58.87 c 0,-7.54 0.76,-13.81 2.3,-18.81 1.54,-5 3.93,-9.12 7.16,-12.35 3.08,-3.08 6.89,-5.42 11.43,-7.04 4.53,-1.62 10.04,-2.42 16.5,-2.42 4.46,0 9.08,0.5 13.85,1.5 4.77,1 9.01,2.42 12.7,4.27 1.38,0.76 2.11,1.76 2.19,3 0.08,1.23 -0.5,4 -1.73,8.31 l -0.69,2.31 c -1.24,4.3 -2.23,7 -3,8.08 -0.77,1.07 -1.77,1.46 -3,1.15 -2.16,-0.77 -4.24,-1.35 -6.24,-1.73 -2,-0.39 -3.92,-0.58 -5.77,-0.58 -4.31,0 -7.69,1.08 -10.15,3.23 -1.39,1.23 -2.39,2.85 -3.01,4.85 -0.61,2 -0.92,4.69 -0.92,8.08 v 57.02 h 27.47 c 1.08,0 1.85,0.54 2.31,1.62 0.46,1.07 0.69,4.38 0.69,9.92 v 1.62 c 0,5.54 -0.23,8.85 -0.69,9.92 -0.46,1.08 -1.23,1.62 -2.31,1.62 h -27.47 v 29.78 c 0,0.61 -0.15,1.15 -0.46,1.61 -0.31,0.47 -0.96,0.81 -1.96,1.04 -1.01,0.23 -2.51,0.43 -4.5,0.58 -2.01,0.15 -4.7,0.23 -8.08,0.23 z m 128.12,11.08 c -6.46,0 -10.62,-0.27 -12.47,-0.81 -1.84,-0.54 -2.77,-1.42 -2.77,-2.65 v -159.28 c 0,-1.54 0.62,-2.51 1.85,-2.89 1.23,-0.38 4.08,-0.58 8.54,-0.58 h 82.18 c 1.54,0 2.58,0.7 3.12,2.08 0.54,1.39 0.81,4.93 0.81,10.62 v 1.85 c 0,2.92 -0.04,5.19 -0.12,6.81 -0.08,1.61 -0.27,2.84 -0.58,3.69 -0.31,0.84 -0.73,1.35 -1.27,1.5 -0.54,0.15 -1.19,0.23 -1.96,0.23 h -59.09 v 135.97 c 0,1.23 -1.08,2.11 -3.24,2.65 -2.15,0.54 -6.31,0.81 -12.46,0.81 z m 95.34,-20.2 c 3.69,-3.77 8.31,-5.65 13.85,-5.65 5.54,0 10.15,1.88 13.85,5.65 3.69,3.77 5.54,8.2 5.54,13.28 0,5.08 -1.85,9.5 -5.54,13.27 -3.7,3.77 -8.31,5.66 -13.85,5.66 -5.54,0 -10.16,-1.89 -13.85,-5.66 -3.7,-3.77 -5.54,-8.19 -5.54,-13.27 0,-5.08 1.84,-9.51 5.54,-13.28 z m 14.08,-24.12 c -3.7,0 -6.58,-0.08 -8.66,-0.23 -2.08,-0.16 -3.62,-0.35 -4.62,-0.58 -1,-0.23 -1.61,-0.58 -1.84,-1.04 -0.23,-0.46 -0.35,-1 -0.35,-1.61 v -114.96 c 0,-0.62 0.12,-1.16 0.35,-1.62 0.23,-0.46 0.84,-0.81 1.84,-1.04 1,-0.23 2.54,-0.42 4.62,-0.58 2.08,-0.15 4.96,-0.23 8.66,-0.23 h 1.15 c 3.39,0 6.08,0.08 8.08,0.23 2,0.16 3.5,0.35 4.5,0.58 1,0.23 1.65,0.58 1.97,1.04 0.3,0.46 0.46,1 0.46,1.62 v 114.96 c 0,0.61 -0.16,1.15 -0.46,1.61 -0.32,0.46 -0.97,0.81 -1.97,1.04 -1,0.23 -2.5,0.42 -4.5,0.58 -2,0.15 -4.69,0.23 -8.08,0.23 z m 53.78,53.56 c -3.69,0 -6.58,-0.08 -8.65,-0.24 -2.08,-0.15 -3.62,-0.34 -4.62,-0.57 -1,-0.23 -1.62,-0.58 -1.85,-1.04 -0.23,-0.46 -0.34,-1 -0.34,-1.62 V 6410.3 c 0,-1.54 0.15,-2.73 0.46,-3.58 0.3,-0.84 1.07,-1.65 2.31,-2.42 2.3,-1.38 5.11,-2.65 8.42,-3.81 3.31,-1.15 6.93,-2.16 10.85,-3 3.93,-0.84 7.97,-1.5 12.12,-1.96 4.16,-0.46 8.23,-0.69 12.24,-0.69 9.69,0 18.54,1.19 26.54,3.57 8,2.39 14.55,6.12 19.63,11.2 5.38,5.38 9.57,12.27 12.58,20.66 3,8.39 4.5,18.27 4.5,29.66 0,9.54 -1.12,18.12 -3.35,25.74 -2.23,7.62 -5.42,14.08 -9.58,19.39 -4.15,5.31 -9.2,9.35 -15.12,12.12 -5.93,2.77 -12.51,4.16 -19.74,4.16 -12.31,0 -22.39,-3.7 -30.24,-11.08 v 58.86 c 0,0.62 -0.15,1.16 -0.46,1.62 -0.31,0.46 -0.96,0.81 -1.96,1.04 -1,0.23 -2.5,0.42 -4.5,0.57 -2.01,0.16 -4.7,0.24 -8.08,0.24 z m 16.16,-96.5 c 0,3.08 0.23,5.58 0.69,7.51 0.47,1.92 1.31,3.57 2.54,4.96 1.7,1.85 4.27,3.27 7.74,4.27 3.46,1 6.81,1.5 10.04,1.5 3.23,0 6.31,-0.5 9.23,-1.5 2.92,-1 5.46,-2.74 7.62,-5.19 2.31,-2.62 4.16,-6.16 5.54,-10.62 1.39,-4.47 2.08,-10.16 2.08,-17.09 0,-13.54 -2.62,-23.54 -7.85,-30.01 -2.31,-2.92 -5.39,-5.07 -9.23,-6.46 -3.85,-1.38 -8.16,-2.08 -12.93,-2.08 -2.62,0 -5.31,0.19 -8.08,0.58 -2.77,0.38 -5.23,0.96 -7.39,1.73 z m 105.26,42.94 c -3.23,0 -5.81,-0.08 -7.73,-0.23 -1.93,-0.16 -3.35,-0.39 -4.27,-0.69 -0.92,-0.31 -1.46,-0.74 -1.62,-1.27 -0.15,-0.54 -0.23,-1.2 -0.23,-1.97 0.47,-6.31 0.85,-14.04 1.16,-23.2 0.3,-9.15 0.46,-18.27 0.46,-27.35 v -63.71 c 0,-0.62 0.11,-1.16 0.35,-1.62 0.23,-0.46 0.84,-0.81 1.84,-1.04 1,-0.23 2.54,-0.42 4.62,-0.58 2.08,-0.15 4.96,-0.23 8.66,-0.23 h 1.15 c 3.38,0 6.08,0.08 8.08,0.23 2,0.16 3.5,0.35 4.5,0.58 1,0.23 1.65,0.58 1.96,1.04 0.31,0.46 0.47,1 0.47,1.62 v 33.24 c 0,10.92 0.69,19.81 2.07,26.66 1.39,6.85 3.54,12.5 6.47,16.97 3.07,4.46 6.73,8.04 10.96,10.73 4.23,2.69 9.58,4.35 16.05,4.97 0.61,0 1.15,0.11 1.61,0.34 0.46,0.23 0.81,0.73 1.04,1.5 0.23,0.77 0.38,2 0.46,3.7 0.08,1.69 0.12,4 0.12,6.92 v 3.23 c 0,2.62 -0.04,4.66 -0.12,6.12 -0.08,1.46 -0.19,2.58 -0.34,3.35 -0.16,0.77 -0.35,1.27 -0.58,1.5 -0.23,0.23 -0.58,0.42 -1.04,0.57 -1.39,0.62 -3.39,0.93 -6,0.93 -7.39,0 -13.62,-2.47 -18.7,-7.39 -5.08,-4.93 -9.47,-12.16 -13.16,-21.7 -0.15,2.31 -0.35,4.73 -0.58,7.27 -0.23,2.54 -0.46,4.97 -0.69,7.28 -0.23,2.3 -0.5,4.3 -0.81,6 -0.31,1.69 -0.54,2.77 -0.69,3.23 -0.31,1.23 -1.31,2.04 -3,2.42 -1.7,0.39 -5.39,0.58 -11.08,0.58 z m 140.13,-11.31 c -2.62,3.84 -6.55,7.08 -11.78,9.69 -5.23,2.62 -11,3.93 -17.31,3.93 -6.92,0 -13.47,-1.47 -19.62,-4.39 -6.16,-2.92 -11.58,-7.15 -16.28,-12.69 -4.69,-5.54 -8.38,-12.39 -11.08,-20.55 -2.69,-8.16 -4.04,-17.47 -4.04,-27.93 0,-9.55 1.12,-18.05 3.35,-25.51 2.23,-7.47 5.46,-13.85 9.7,-19.16 4.23,-5.31 9.38,-9.35 15.46,-12.12 6.08,-2.77 12.89,-4.15 20.43,-4.15 5.85,0 11.7,1.19 17.55,3.57 5.84,2.39 10.54,5.58 14.08,9.58 0.31,-1.38 0.58,-2.85 0.81,-4.38 0.23,-1.54 0.49,-2.7 0.81,-3.47 0.46,-1.23 1.5,-2.04 3.11,-2.42 1.62,-0.38 5.27,-0.58 10.97,-0.58 h 1.15 c 3.23,0 5.77,0.08 7.62,0.23 1.85,0.16 3.19,0.39 4.04,0.7 0.84,0.3 1.3,0.73 1.38,1.27 0.08,0.53 0.12,1.19 0.12,1.96 -0.46,6.31 -0.85,14.04 -1.16,23.2 -0.31,9.15 -0.46,18.27 -0.46,27.35 v 14.09 c 0,4.76 0.04,9.69 0.12,14.77 0.07,5.08 0.11,9.89 0.11,14.43 0,4.53 0.04,8.65 0.12,12.35 0.08,3.69 0.11,6.46 0.11,8.31 0,1.23 -0.77,2.08 -2.3,2.54 -1.54,0.46 -5.24,0.69 -11.08,0.69 h -1.39 c -3.08,0 -5.5,-0.08 -7.27,-0.23 -1.77,-0.16 -3.12,-0.35 -4.04,-0.58 -0.92,-0.23 -1.54,-0.54 -1.85,-0.92 -0.31,-0.39 -0.46,-0.81 -0.46,-1.27 z m -2.77,-66.48 c 0,-2.77 -0.23,-5.2 -0.7,-7.28 -0.46,-2.07 -1.3,-3.96 -2.53,-5.65 -1.7,-2.16 -4.08,-3.85 -7.16,-5.08 -3.08,-1.23 -6.46,-1.85 -10.16,-1.85 -4.61,0 -8.5,0.89 -11.66,2.66 -3.15,1.76 -5.65,4.19 -7.5,7.27 -1.84,3.08 -3.15,6.81 -3.92,11.19 -0.77,4.39 -1.16,9.12 -1.16,14.2 0,12.01 2,21.2 6.01,27.59 4,6.38 10.23,9.58 18.69,9.58 4,0 7.81,-1.01 11.43,-3 3.61,-2.01 6.5,-4.7 8.66,-8.08 z m 66.02,77.79 c -3.23,0 -5.81,-0.08 -7.74,-0.23 -1.92,-0.16 -3.34,-0.39 -4.27,-0.69 -0.92,-0.31 -1.46,-0.74 -1.61,-1.27 -0.16,-0.54 -0.23,-1.2 -0.23,-1.97 0.46,-6.31 0.84,-14.04 1.15,-23.2 0.31,-9.15 0.46,-18.27 0.46,-27.35 v -63.71 c 0,-0.62 0.12,-1.16 0.35,-1.62 0.23,-0.46 0.84,-0.81 1.85,-1.04 1,-0.23 2.54,-0.42 4.61,-0.58 2.08,-0.15 4.97,-0.23 8.66,-0.23 h 1.15 c 3.39,0 6.08,0.08 8.08,0.23 2,0.16 3.5,0.35 4.5,0.58 1,0.23 1.66,0.58 1.97,1.04 0.3,0.46 0.46,1 0.46,1.62 v 33.24 c 0,10.92 0.69,19.81 2.08,26.66 1.38,6.85 3.53,12.5 6.46,16.97 3.08,4.46 6.73,8.04 10.97,10.73 4.23,2.69 9.58,4.35 16.04,4.97 0.61,0 1.15,0.11 1.61,0.34 0.47,0.23 0.81,0.73 1.04,1.5 0.23,0.77 0.39,2 0.47,3.7 0.07,1.69 0.11,4 0.11,6.92 v 3.23 c 0,2.62 -0.04,4.66 -0.11,6.12 -0.08,1.46 -0.2,2.58 -0.35,3.35 -0.16,0.77 -0.35,1.27 -0.58,1.5 -0.23,0.23 -0.58,0.42 -1.04,0.57 -1.38,0.62 -3.38,0.93 -6,0.93 -7.39,0 -13.62,-2.47 -18.7,-7.39 -5.08,-4.93 -9.46,-12.16 -13.16,-21.7 -0.15,2.31 -0.34,4.73 -0.57,7.27 -0.23,2.54 -0.46,4.97 -0.7,7.28 -0.23,2.3 -0.5,4.3 -0.8,6 -0.31,1.69 -0.54,2.77 -0.7,3.23 -0.31,1.23 -1.3,2.04 -3,2.42 -1.69,0.39 -5.39,0.58 -11.08,0.58 z m 71.56,24.12 c 3.69,-3.77 8.31,-5.65 13.85,-5.65 5.54,0 10.15,1.88 13.85,5.65 3.69,3.77 5.54,8.2 5.54,13.28 0,5.08 -1.85,9.5 -5.54,13.27 -3.7,3.77 -8.31,5.66 -13.85,5.66 -5.54,0 -10.16,-1.89 -13.85,-5.66 -3.7,-3.77 -5.54,-8.19 -5.54,-13.27 0,-5.08 1.84,-9.51 5.54,-13.28 z m 14.08,-24.12 c -3.7,0 -6.58,-0.08 -8.66,-0.23 -2.08,-0.16 -3.62,-0.35 -4.62,-0.58 -1,-0.23 -1.61,-0.58 -1.84,-1.04 -0.23,-0.46 -0.35,-1 -0.35,-1.61 v -114.96 c 0,-0.62 0.12,-1.16 0.35,-1.62 0.23,-0.46 0.84,-0.81 1.84,-1.04 1,-0.23 2.54,-0.42 4.62,-0.58 2.08,-0.15 4.96,-0.23 8.66,-0.23 h 1.15 c 3.39,0 6.08,0.08 8.08,0.23 2,0.16 3.5,0.35 4.5,0.58 1,0.23 1.66,0.58 1.97,1.04 0.3,0.46 0.46,1 0.46,1.62 v 114.96 c 0,0.61 -0.16,1.15 -0.46,1.61 -0.31,0.46 -0.97,0.81 -1.97,1.04 -1,0.23 -2.5,0.42 -4.5,0.58 -2,0.15 -4.69,0.23 -8.08,0.23 z m 139.43,-71.79 c 0.92,0 1.53,0.88 1.84,2.65 0.31,1.77 0.47,4.89 0.47,9.35 0,8.92 -1.12,17.2 -3.35,24.82 -2.23,7.61 -5.62,14.19 -10.16,19.73 -4.54,5.54 -10.12,9.85 -16.74,12.93 -6.61,3.08 -14.31,4.62 -23.08,4.62 -8.77,0 -16.7,-1.58 -23.78,-4.73 -7.08,-3.16 -13.04,-7.62 -17.89,-13.39 -4.84,-5.77 -8.58,-12.62 -11.19,-20.55 -2.62,-7.93 -3.93,-16.58 -3.93,-25.97 0,-9.85 1.39,-18.58 4.16,-26.2 2.77,-7.62 6.73,-14.08 11.89,-19.39 5.15,-5.31 11.38,-9.35 18.69,-12.12 7.31,-2.77 15.51,-4.15 24.59,-4.15 8.15,0 16.19,1.03 24.12,3.11 7.93,2.08 14.81,4.73 20.66,7.97 1.39,0.76 2.12,1.76 2.2,3 0.07,1.23 -0.58,3.84 -1.97,7.85 l -2.07,5.77 c -1.24,3.54 -2.28,5.69 -3.12,6.46 -0.85,0.77 -1.89,0.84 -3.12,0.23 -5.23,-2.16 -10.54,-3.92 -15.92,-5.31 -5.39,-1.38 -10.93,-2.08 -16.63,-2.08 -8.77,0 -15.73,2.16 -20.89,6.47 -5.15,4.3 -8.35,10.62 -9.58,18.93 z m -74.8,22.62 c 1.54,7.85 4.31,13.97 8.31,18.35 4,4.39 9.24,6.58 15.7,6.58 6.46,0 11.46,-2.35 15.01,-7.04 3.53,-4.7 5.69,-10.66 6.46,-17.89 z m 89.11,-50.79 c -1.85,-3.38 -2.89,-5.77 -3.12,-7.15 -0.23,-1.39 0.12,-2.47 1.04,-3.23 4.77,-4.01 10.89,-7.32 18.35,-9.93 7.46,-2.62 15.66,-3.92 24.59,-3.92 16.62,0 29.31,4.23 38.09,12.69 3.69,3.54 6.58,7.74 8.65,12.58 2.08,4.85 3.12,9.97 3.12,15.35 0,6.93 -1.47,12.59 -4.39,16.97 -2.92,4.39 -6.58,7.93 -10.96,10.62 -4.39,2.69 -9.12,4.85 -14.2,6.46 -5.08,1.62 -9.81,3.12 -14.2,4.51 -4.38,1.38 -8.04,2.88 -10.96,4.5 -2.93,1.61 -4.39,3.88 -4.39,6.81 0,2.61 1.08,4.84 3.23,6.69 3.08,2.62 8.08,3.93 15.01,3.93 4.46,0 8.58,-0.66 12.35,-1.97 3.77,-1.31 7.5,-3.11 11.2,-5.42 1.23,-0.77 2.38,-0.73 3.46,0.11 1.07,0.85 2.69,3.04 4.85,6.58 l 2.07,3.23 c 2.31,4 3.66,6.7 4.04,8.08 0.39,1.39 -0.04,2.46 -1.27,3.24 -4.92,3.69 -10.58,6.54 -16.96,8.54 -6.39,2 -13.43,3 -21.13,3 -6.77,0 -13.08,-0.89 -18.92,-2.66 -5.86,-1.77 -10.89,-4.35 -15.12,-7.73 -4.24,-3.39 -7.59,-7.5 -10.05,-12.35 -2.46,-4.85 -3.69,-10.27 -3.69,-16.27 0,-7.39 1.46,-13.36 4.39,-17.89 2.92,-4.55 6.57,-8.2 10.96,-10.97 4.39,-2.77 9.12,-4.93 14.2,-6.46 5.08,-1.54 9.81,-2.97 14.19,-4.27 4.39,-1.31 8.04,-2.81 10.97,-4.51 2.92,-1.69 4.39,-4 4.39,-6.92 0,-3.08 -1.7,-5.66 -5.08,-7.73 -3.39,-2.08 -8.16,-3.12 -14.32,-3.12 -4.92,0 -9.96,0.88 -15.12,2.65 -5.15,1.77 -9.96,4.2 -14.42,7.28 -1.24,0.92 -2.47,0.84 -3.7,-0.24 -1.23,-1.07 -2.85,-3.38 -4.84,-6.92 l -2.31,-4.16" style="fill:#231f20;fill-opacity:1;fill-rule:nonzero;stroke:none" id="path72"/>
    </g>
  </g>
</svg>